# Blender v2.93.1 OBJ File: ''
# www.blender.org
mtllib Final.mtl
o Cube.001
v -0.606628 0.400000 -0.904668
v -0.604565 0.400000 -0.906719
v -0.604565 0.454091 -0.906719
v -0.606628 0.454091 -0.904668
v 0.335660 0.400000 -0.850244
v 0.340239 0.400000 -0.833455
v 0.340239 0.454091 -0.833455
v 0.335660 0.454091 -0.850244
v 0.332327 0.400000 -0.809717
v -0.960055 0.400000 0.229464
v -0.960055 0.454091 0.229464
v 0.332327 0.454091 -0.809717
v -1.139406 0.400000 0.139788
v -1.139406 0.454091 0.139788
vt 0.000000 0.000000
vt 0.000000 0.000000
vt 0.000000 0.000000
vt 0.000000 0.000000
vt 0.000000 0.000000
vt 0.000000 0.000000
vt 0.000000 0.000000
vt 0.000000 0.000000
vt 0.000000 0.000000
vt 0.000000 0.000000
vt 0.000000 0.000000
vt 0.000000 0.000000
vt 0.000000 0.000000
vt 0.000000 0.000000
vn 0.7051 0.0000 0.7091
vn -0.9648 0.0000 0.2631
vn -0.6266 0.0000 -0.7793
vn 0.8908 0.0000 0.4544
vn -0.0600 0.0000 0.9982
vn -0.9487 0.0000 -0.3162
vn 0.4472 0.0000 -0.8944
vn 0.0000 -1.0000 -0.0000
vn -0.0000 1.0000 0.0000
usemtl Material.001
s 1
f 1/1/1 2/2/1 3/3/1 4/4/1
f 5/5/2 6/6/2 7/7/2 8/8/2
f 9/9/3 10/10/3 11/11/3 12/12/3
f 13/13/4 1/1/4 4/4/4 14/14/4
f 2/2/5 5/5/5 8/8/5 3/3/5
f 6/6/6 9/9/6 12/12/6 7/7/6
f 10/10/7 13/13/7 14/14/7 11/11/7
f 3/3/8 8/8/8 7/7/8 12/12/8 11/11/8 14/14/8 4/4/8
f 2/2/9 1/1/9 13/13/9 10/10/9 9/9/9 6/6/9 5/5/9
o Cube.003
v -0.512850 0.200000 -0.769275
v 0.172171 0.200000 -0.448744
v 0.210635 0.200000 -0.534830
v -0.431759 0.200102 -0.837644
v -0.437754 0.200000 -0.838877
v -0.512855 0.220853 -0.769266
v -0.437759 0.220853 -0.838867
v -0.431763 0.220955 -0.837634
v 0.210630 0.220853 -0.534820
v 0.172167 0.220853 -0.448734
vt 0.000000 0.000000
vt 0.000000 0.000000
vt 0.000000 0.000000
vt 0.000000 0.000000
vt 0.000000 0.000000
vt 0.000000 0.000000
vt 0.000000 0.000000
vt 0.000000 0.000000
vt 0.000000 0.000000
vt 0.000000 0.000000
vn -0.0002 1.0000 0.0005
vn 0.0002 -1.0000 -0.0005
vn -0.4264 -0.0005 0.9045
vn 0.4238 0.0005 -0.9057
vn -0.2014 -0.0005 0.9795
vn -0.9130 -0.0000 -0.4079
vn 0.6798 -0.0002 0.7334
usemtl Material.003
s 1
f 15/15/10 16/16/10 17/17/10 18/18/10 19/19/10
f 20/20/11 21/21/11 22/22/11 23/23/11 24/24/11
f 18/18/12 17/17/12 23/23/12 22/22/12
f 16/16/13 15/15/13 20/20/13 24/24/13
f 19/19/14 18/18/14 22/22/14 21/21/14
f 17/17/15 16/16/15 24/24/15 23/23/15
f 15/15/16 19/19/16 21/21/16 20/20/16
o Cube.004
v -1.636343 0.300000 1.454551
v -1.616101 0.300000 1.442282
v -1.616101 0.342272 1.442282
v -1.636343 0.342272 1.454551
v -2.444009 0.300000 1.289507
v -2.445287 0.300000 1.303990
v -2.445287 0.342272 1.303990
v -2.444009 0.342272 1.289507
v -1.654132 0.300000 1.463138
v -1.654132 0.342272 1.463138
v -2.444009 0.300000 1.316769
v -2.444009 0.342272 1.316769
v -1.671307 0.300000 1.469885
v -1.671307 0.342272 1.469885
v -2.439324 0.300000 1.330401
v -2.439324 0.342272 1.330401
v -1.688482 0.300000 1.475406
v -1.688482 0.342272 1.475406
v -1.825271 0.342272 1.491354
v -1.805029 0.342272 1.493195
v -1.775585 0.342272 1.491968
v -1.753503 0.342272 1.490128
v -1.730194 0.342272 1.487061
v -1.709952 0.342272 1.482767
v -0.796965 0.342272 0.819027
v -0.797849 0.342272 0.802244
v -1.145122 0.342272 0.032969
v -1.323154 0.342272 -0.131876
v -1.327579 0.342272 -0.128858
v -2.426544 0.342272 1.242650
v -2.435916 0.342272 1.259263
v -2.441453 0.342272 1.274598
v -2.434212 0.342272 1.341902
v -2.427396 0.342272 1.349995
v -2.419303 0.342272 1.356811
v -2.405672 0.342272 1.364478
v -1.871276 0.342272 1.484607
v -1.850420 0.342272 1.488901
v -1.825271 0.300000 1.491354
v -1.850420 0.300000 1.488901
v -1.871276 0.300000 1.484607
v -2.405672 0.300000 1.364478
v -2.419303 0.300000 1.356811
v -2.427396 0.300000 1.349995
v -2.434212 0.300000 1.341902
v -2.441453 0.300000 1.274598
v -2.435916 0.300000 1.259263
v -2.426544 0.300000 1.242650
v -1.327579 0.300000 -0.128858
v -1.323154 0.300000 -0.131876
v -1.145122 0.300000 0.032969
v -0.797849 0.300000 0.802244
v -0.796965 0.300000 0.819027
v -1.709952 0.300000 1.482767
v -1.730194 0.300000 1.487061
v -1.753503 0.300000 1.490128
v -1.775585 0.300000 1.491968
v -1.805029 0.300000 1.493195
vt 0.000000 0.000000
vt 0.000000 0.000000
vt 0.000000 0.000000
vt 0.000000 0.000000
vt 0.000000 0.000000
vt 0.000000 0.000000
vt 0.000000 0.000000
vt 0.000000 0.000000
vt 0.000000 0.000000
vt 0.000000 0.000000
vt 0.000000 0.000000
vt 0.000000 0.000000
vt 0.000000 0.000000
vt 0.000000 0.000000
vt 0.000000 0.000000
vt 0.000000 0.000000
vt 0.000000 0.000000
vt 0.000000 0.000000
vt 0.000000 0.000000
vt 0.000000 0.000000
vt 0.000000 0.000000
vt 0.000000 0.000000
vt 0.000000 0.000000
vt 0.000000 0.000000
vt 0.000000 0.000000
vt 0.000000 0.000000
vt 0.000000 0.000000
vt 0.000000 0.000000
vt 0.000000 0.000000
vt 0.000000 0.000000
vt 0.000000 0.000000
vt 0.000000 0.000000
vt 0.000000 0.000000
vt 0.000000 0.000000
vt 0.000000 0.000000
vt 0.000000 0.000000
vt 0.000000 0.000000
vt 0.000000 0.000000
vt 0.000000 0.000000
vt 0.000000 0.000000
vt 0.000000 0.000000
vt 0.000000 0.000000
vt 0.000000 0.000000
vt 0.000000 0.000000
vt 0.000000 0.000000
vt 0.000000 0.000000
vt 0.000000 0.000000
vt 0.000000 0.000000
vt 0.000000 0.000000
vt 0.000000 0.000000
vt 0.000000 0.000000
vt 0.000000 0.000000
vt 0.000000 0.000000
vt 0.000000 0.000000
vt 0.000000 0.000000
vt 0.000000 0.000000
vt 0.000000 0.000000
vt 0.000000 0.000000
vn 0.5183 0.0000 0.8552
vn -0.9961 0.0000 -0.0879
vn 0.4347 0.0000 0.9006
vn -0.9950 0.0000 0.0995
vn 0.3656 0.0000 0.9308
vn -0.9457 0.0000 0.3250
vn 0.3060 0.0000 0.9520
vn -0.0000 1.0000 0.0000
vn 0.0000 -1.0000 -0.0000
vn -0.9856 0.0000 -0.1690
vn 0.6055 0.0000 0.7958
vn -0.9406 0.0000 -0.3396
vn 0.9986 0.0000 -0.0526
vn -0.8710 0.0000 -0.4913
vn 0.9114 0.0000 -0.4114
vn -0.0971 0.0000 0.9953
vn -0.0938 0.0000 0.9956
vn -0.7804 0.0000 -0.6253
vn 0.6794 -0.0000 -0.7338
vn -0.0906 0.0000 0.9959
vn -0.5635 0.0000 -0.8261
vn -0.2017 0.0000 0.9795
vn 0.0416 0.0000 0.9991
vn -0.2193 0.0000 0.9757
vn 0.0830 0.0000 0.9965
vn -0.4902 0.0000 0.8716
vn 0.1305 0.0000 0.9915
vn -0.6442 0.0000 0.7649
vn 0.2075 0.0000 0.9782
vn -0.7649 0.0000 0.6442
vn 0.3243 0.0000 0.9459
vn -0.9138 0.0000 0.4062
usemtl Material.004
s 1
f 25/25/17 26/26/17 27/27/17 28/28/17
f 29/29/18 30/30/18 31/31/18 32/32/18
f 33/33/19 25/25/19 28/28/19 34/34/19
f 30/30/20 35/35/20 36/36/20 31/31/20
f 37/37/21 33/33/21 34/34/21 38/38/21
f 35/35/22 39/39/22 40/40/22 36/36/22
f 41/41/23 37/37/23 38/38/23 42/42/23
f 43/43/24 44/44/24 45/45/24 46/46/24 47/47/24 48/48/24 42/42/24 38/38/24 34/34/24 28/28/24 27/27/24 49/49/24 50/50/24 51/51/24 52/52/24 53/53/24 54/54/24 55/55/24 56/56/24 32/32/24 31/31/24 36/36/24 40/40/24 57/57/24 58/58/24 59/59/24 60/60/24 61/61/24 62/62/24
f 63/63/25 64/64/25 65/65/25 66/66/25 67/67/25 68/68/25 69/69/25 39/39/25 35/35/25 30/30/25 29/29/25 70/70/25 71/71/25 72/72/25 73/73/25 74/74/25 75/75/25 76/76/25 77/77/25 26/26/25 25/25/25 33/33/25 37/37/25 41/41/25 78/78/25 79/79/25 80/80/25 81/81/25 82/82/25
f 70/70/26 29/29/26 32/32/26 56/56/26
f 26/26/27 77/77/27 49/49/27 27/27/27
f 71/71/28 70/70/28 56/56/28 55/55/28
f 77/77/29 76/76/29 50/50/29 49/49/29
f 72/72/30 71/71/30 55/55/30 54/54/30
f 76/76/31 75/75/31 51/51/31 50/50/31
f 64/64/32 63/63/33 43/43/33 62/62/32
f 73/73/34 72/72/34 54/54/34 53/53/34
f 75/75/35 74/74/35 52/52/35 51/51/35
f 63/63/33 82/82/36 44/44/36 43/43/33
f 74/74/37 73/73/37 53/53/37 52/52/37
f 65/65/38 64/64/38 62/62/38 61/61/38
f 82/82/39 81/81/39 45/45/39 44/44/39
f 66/66/40 65/65/40 61/61/40 60/60/40
f 81/81/41 80/80/41 46/46/41 45/45/41
f 67/67/42 66/66/42 60/60/42 59/59/42
f 80/80/43 79/79/43 47/47/43 46/46/43
f 68/68/44 67/67/44 59/59/44 58/58/44
f 79/79/45 78/78/45 48/48/45 47/47/45
f 69/69/46 68/68/46 58/58/46 57/57/46
f 78/78/47 41/41/47 42/42/47 48/48/47
f 39/39/48 69/69/48 57/57/48 40/40/48
o Cube.005
v 0.284852 0.100000 -0.325997
v 0.282485 0.100000 -0.328652
v 0.282485 0.147588 -0.328652
v 0.284852 0.147588 -0.325997
v -0.210054 0.100000 0.636570
v -0.185027 0.100000 0.618168
v -0.185027 0.147588 0.618168
v -0.210054 0.147588 0.636570
v -0.231401 0.100000 0.650555
v -0.231401 0.147588 0.650555
v -0.072795 0.100000 0.484248
v -0.072795 0.147588 0.484248
v -0.256427 0.100000 0.664541
v -0.256427 0.147588 0.664541
v -0.103322 0.100000 0.531310
v -0.103322 0.147588 0.531310
v -0.282190 0.100000 0.678526
v -0.282190 0.147588 0.678526
v -1.138283 0.147588 0.164865
v -0.909332 0.147588 0.984000
v -0.161473 0.147588 0.595349
v -0.144543 0.147588 0.579891
v -0.123196 0.147588 0.556337
v -0.123196 0.100000 0.556337
v -0.144543 0.100000 0.579891
v -0.161473 0.100000 0.595349
v -0.909332 0.100000 0.984000
v -1.138283 0.100000 0.164865
vt 0.000000 0.000000
vt 0.000000 0.000000
vt 0.000000 0.000000
vt 0.000000 0.000000
vt 0.000000 0.000000
vt 0.000000 0.000000
vt 0.000000 0.000000
vt 0.000000 0.000000
vt 0.000000 0.000000
vt 0.000000 0.000000
vt 0.000000 0.000000
vt 0.000000 0.000000
vt 0.000000 0.000000
vt 0.000000 0.000000
vt 0.000000 0.000000
vt 0.000000 0.000000
vt 0.000000 0.000000
vt 0.000000 0.000000
vt 0.000000 0.000000
vt 0.000000 0.000000
vt 0.000000 0.000000
vt 0.000000 0.000000
vt 0.000000 0.000000
vt 0.000000 0.000000
vt 0.000000 0.000000
vt 0.000000 0.000000
vt 0.000000 0.000000
vt 0.000000 0.000000
vn 0.7464 0.0000 -0.6655
vn 0.5924 0.0000 0.8057
vn 0.5480 0.0000 0.8365
vn 0.9148 0.0000 0.4038
vn 0.4825 0.0000 0.8759
vn 0.4878 0.0000 0.8729
vn 0.8390 0.0000 0.5442
vn 0.4771 0.0000 0.8789
vn -0.0000 1.0000 0.0000
vn 0.0000 -1.0000 -0.0000
vn 0.6958 0.0000 0.7182
vn -0.3281 0.0000 -0.9446
vn 0.6743 0.0000 0.7385
vn -0.9631 0.0000 0.2692
vn 0.7410 0.0000 0.6715
vn 0.4379 0.0000 0.8990
vn 0.7831 0.0000 0.6219
usemtl Material.005
s 1
f 83/83/49 84/84/49 85/85/49 86/86/49
f 87/87/50 88/88/50 89/89/50 90/90/50
f 91/91/51 87/87/51 90/90/51 92/92/51
f 93/93/52 83/83/52 86/86/52 94/94/52
f 95/95/53 91/91/54 92/92/54 96/96/53
f 97/97/55 93/93/55 94/94/55 98/98/55
f 99/99/56 95/95/53 96/96/53 100/100/56
f 85/85/57 101/101/57 102/102/57 100/100/57 96/96/57 92/92/57 90/90/57 89/89/57 103/103/57 104/104/57 105/105/57 98/98/57 94/94/57 86/86/57
f 84/84/58 83/83/58 93/93/58 97/97/58 106/106/58 107/107/58 108/108/58 88/88/58 87/87/58 91/91/58 95/95/58 99/99/58 109/109/58 110/110/58
f 88/88/59 108/108/59 103/103/59 89/89/59
f 84/84/60 110/110/60 101/101/60 85/85/60
f 108/108/61 107/107/61 104/104/61 103/103/61
f 110/110/62 109/109/62 102/102/62 101/101/62
f 107/107/63 106/106/63 105/105/63 104/104/63
f 109/109/64 99/99/64 100/100/64 102/102/64
f 106/106/65 97/97/65 98/98/65 105/105/65
o Cube.006
v 0.087230 0.250000 -0.289038
v -1.108810 0.250000 0.134064
v -1.108810 0.294439 0.134064
v 0.087230 0.294439 -0.289038
v -1.223514 0.250000 0.126381
v -1.344400 0.250000 -0.029306
v -1.344400 0.294439 -0.029306
v -1.223514 0.294439 0.126381
v 0.140347 0.250000 -0.398934
v 0.140347 0.294439 -0.398934
v -1.206555 0.250000 0.148640
v -1.206555 0.294439 0.148640
v -1.201255 0.250000 0.170899
v -1.201255 0.294439 0.170899
v -1.194895 0.250000 0.196338
v -1.194895 0.294439 0.196338
v 0.144697 0.250000 -0.406617
v 0.144697 0.294439 -0.406617
v -0.832237 0.294439 0.745821
v -1.064851 0.294439 0.877696
v -1.271136 0.294439 -0.093412
v -1.144755 0.294439 0.049453
v -1.144755 0.250000 0.049453
v -1.271136 0.250000 -0.093412
v -1.064851 0.250000 0.877696
v -0.832237 0.250000 0.745821
vt 0.000000 0.000000
vt 0.000000 0.000000
vt 0.000000 0.000000
vt 0.000000 0.000000
vt 0.000000 0.000000
vt 0.000000 0.000000
vt 0.000000 0.000000
vt 0.000000 0.000000
vt 0.000000 0.000000
vt 0.000000 0.000000
vt 0.000000 0.000000
vt 0.000000 0.000000
vt 0.000000 0.000000
vt 0.000000 0.000000
vt 0.000000 0.000000
vt 0.000000 0.000000
vt 0.000000 0.000000
vt 0.000000 0.000000
vt 0.000000 0.000000
vt 0.000000 0.000000
vt 0.000000 0.000000
vt 0.000000 0.000000
vt 0.000000 0.000000
vt 0.000000 0.000000
vt 0.000000 0.000000
vt 0.000000 0.000000
vn -0.3335 0.0000 -0.9428
vn 0.7927 -0.0000 -0.6097
vn 0.7899 -0.0000 -0.6133
vn -0.9003 0.0000 -0.4352
vn 0.7954 0.0000 -0.6060
vn 0.9715 0.0000 -0.2371
vn 0.9728 0.0000 -0.2316
vn 0.9701 0.0000 -0.2425
vn -0.8702 0.0000 -0.4927
vn 0.0000 -1.0000 -0.0000
vn -0.0000 1.0000 0.0000
vn 0.6585 0.0000 0.7526
vn -0.9112 0.0000 0.4120
vn -0.7490 0.0000 0.6626
vn -0.4932 0.0000 -0.8699
vn 0.3335 -0.0000 0.9428
vn 0.9823 0.0000 -0.1875
usemtl Material.006
s 1
f 111/111/66 112/112/66 113/113/66 114/114/66
f 115/115/67 116/116/68 117/117/68 118/118/67
f 119/119/69 111/111/69 114/114/69 120/120/69
f 121/121/70 115/115/67 118/118/67 122/122/70
f 123/123/71 121/121/72 122/122/72 124/124/71
f 125/125/73 123/123/71 124/124/71 126/126/73
f 127/127/74 119/119/74 120/120/74 128/128/74
f 114/114/75 113/113/75 129/129/75 130/130/75 126/126/75 124/124/75 122/122/75 118/118/75 117/117/75 131/131/75 132/132/75 128/128/75 120/120/75
f 111/111/76 119/119/76 127/127/76 133/133/76 134/134/76 116/116/76 115/115/76 121/121/76 123/123/76 125/125/76 135/135/76 136/136/76 112/112/76
f 116/116/77 134/134/77 131/131/77 117/117/77
f 112/112/78 136/136/78 129/129/78 113/113/78
f 134/134/79 133/133/79 132/132/79 131/131/79
f 136/136/80 135/135/80 130/130/80 129/129/80
f 133/133/81 127/127/81 128/128/81 132/132/81
f 135/135/82 125/125/82 126/126/82 130/130/82
o Cube.007
v 0.177940 0.200000 -1.406396
v 0.160546 0.200000 -1.398942
v 0.160546 0.237143 -1.398942
v 0.177940 0.237143 -1.406396
v -0.288537 0.200000 -0.953982
v -0.285129 0.200000 -0.949723
v -0.285129 0.237143 -0.949723
v -0.288537 0.237143 -0.953982
v 0.777000 0.200000 -1.440687
v 0.770611 0.200000 -1.450910
v 0.770611 0.237143 -1.450910
v 0.777000 0.237143 -1.440687
v -0.288963 0.200000 -0.959520
v -0.288963 0.237143 -0.959520
v 0.764647 0.200000 -1.457726
v 0.764647 0.237143 -1.457726
v -0.285981 0.200000 -0.965058
v -0.285981 0.237143 -0.965058
v 0.757831 0.200000 -1.463264
v 0.757831 0.237143 -1.463264
v 0.145637 0.237143 -1.391842
v 0.132502 0.237143 -1.386162
v 0.120433 0.237143 -1.380128
v 0.108364 0.237143 -1.373738
v 0.095585 0.237143 -1.366639
v 0.081386 0.237143 -1.357409
v 0.068251 0.237143 -1.349245
v 0.056182 0.237143 -1.338950
v 0.043048 0.237143 -1.327946
v 0.500300 0.237143 -0.762110
v 0.502232 0.237143 -0.765674
v 0.778704 0.237143 -1.373383
v 0.783816 0.237143 -1.388718
v 0.786798 0.237143 -1.405757
v 0.786372 0.237143 -1.416832
v 0.783816 0.237143 -1.428334
v 0.747608 0.237143 -1.469227
v 0.737811 0.237143 -1.472209
v 0.279463 0.237143 -1.433019
v 0.257810 0.237143 -1.430180
v 0.240416 0.237143 -1.425920
v 0.223377 0.237143 -1.420950
v 0.210243 0.237143 -1.417400
v 0.194623 0.237143 -1.412076
v 0.194623 0.200000 -1.412076
v 0.210243 0.200000 -1.417400
v 0.223377 0.200000 -1.420950
v 0.240416 0.200000 -1.425920
v 0.257810 0.200000 -1.430180
v 0.279463 0.200000 -1.433019
v 0.737811 0.200000 -1.472209
v 0.747608 0.200000 -1.469227
v 0.783816 0.200000 -1.428334
v 0.786372 0.200000 -1.416832
v 0.786798 0.200000 -1.405757
v 0.783816 0.200000 -1.388718
v 0.778704 0.200000 -1.373383
v 0.502232 0.200000 -0.765674
v 0.500300 0.200000 -0.762110
v 0.043048 0.200000 -1.327946
v 0.056182 0.200000 -1.338950
v 0.068251 0.200000 -1.349245
v 0.081386 0.200000 -1.357409
v 0.095585 0.200000 -1.366639
v 0.108364 0.200000 -1.373738
v 0.120433 0.200000 -1.380128
v 0.132502 0.200000 -1.386162
v 0.145637 0.200000 -1.391842
vt 0.000000 0.000000
vt 0.000000 0.000000
vt 0.000000 0.000000
vt 0.000000 0.000000
vt 0.000000 0.000000
vt 0.000000 0.000000
vt 0.000000 0.000000
vt 0.000000 0.000000
vt 0.000000 0.000000
vt 0.000000 0.000000
vt 0.000000 0.000000
vt 0.000000 0.000000
vt 0.000000 0.000000
vt 0.000000 0.000000
vt 0.000000 0.000000
vt 0.000000 0.000000
vt 0.000000 0.000000
vt 0.000000 0.000000
vt 0.000000 0.000000
vt 0.000000 0.000000
vt 0.000000 0.000000
vt 0.000000 0.000000
vt 0.000000 0.000000
vt 0.000000 0.000000
vt 0.000000 0.000000
vt 0.000000 0.000000
vt 0.000000 0.000000
vt 0.000000 0.000000
vt 0.000000 0.000000
vt 0.000000 0.000000
vt 0.000000 0.000000
vt 0.000000 0.000000
vt 0.000000 0.000000
vt 0.000000 0.000000
vt 0.000000 0.000000
vt 0.000000 0.000000
vt 0.000000 0.000000
vt 0.000000 0.000000
vt 0.000000 0.000000
vt 0.000000 0.000000
vt 0.000000 0.000000
vt 0.000000 0.000000
vt 0.000000 0.000000
vt 0.000000 0.000000
vt 0.000000 0.000000
vt 0.000000 0.000000
vt 0.000000 0.000000
vt 0.000000 0.000000
vt 0.000000 0.000000
vt 0.000000 0.000000
vt 0.000000 0.000000
vt 0.000000 0.000000
vt 0.000000 0.000000
vt 0.000000 0.000000
vt 0.000000 0.000000
vt 0.000000 0.000000
vt 0.000000 0.000000
vt 0.000000 0.000000
vt 0.000000 0.000000
vt 0.000000 0.000000
vt 0.000000 0.000000
vt 0.000000 0.000000
vt 0.000000 0.000000
vt 0.000000 0.000000
vt 0.000000 0.000000
vt 0.000000 0.000000
vt 0.000000 0.000000
vt 0.000000 0.000000
vn -0.3939 0.0000 -0.9192
vn -0.7808 0.0000 0.6248
vn 0.8480 0.0000 -0.5300
vn -0.9971 0.0000 0.0767
vn 0.7526 0.0000 -0.6585
vn -0.8805 0.0000 -0.4741
vn 0.6306 0.0000 -0.7761
vn 0.0000 1.0000 0.0000
vn -0.0000 -1.0000 -0.0000
vn 0.8756 0.0000 -0.4831
vn -0.2323 0.0000 0.9726
vn -0.4300 0.0000 -0.9029
vn 0.9762 0.0000 -0.2169
vn -0.3225 0.0000 -0.9466
vn -0.3223 0.0000 -0.9466
vn -0.3969 0.0000 -0.9179
vn 0.9993 0.0000 -0.0384
vn -0.3226 0.0000 -0.9465
vn -0.4472 0.0000 -0.8944
vn 0.9850 0.0000 0.1724
vn -0.2609 0.0000 -0.9654
vn -0.4679 0.0000 -0.8838
vn 0.9487 0.0000 0.3162
vn -0.2800 0.0000 -0.9600
vn -0.4856 0.0000 -0.8742
vn 0.9102 0.0000 0.4141
vn -0.2379 0.0000 -0.9713
vn -0.5450 0.0000 -0.8384
vn 0.8791 0.0000 0.4766
vn -0.1300 0.0000 -0.9915
vn -0.5279 0.0000 -0.8493
vn -0.0852 0.0000 -0.9964
vn -0.6490 0.0000 -0.7608
vn -0.6456 0.0000 -0.7637
vn 0.2912 0.0000 -0.9567
vn -0.6422 0.0000 -0.7665
vn 0.5038 0.0000 -0.8638
vn -0.7408 0.0000 -0.6717
usemtl Material.007
s 1
f 137/137/83 138/138/83 139/139/83 140/140/83
f 141/141/84 142/142/84 143/143/84 144/144/84
f 145/145/85 146/146/85 147/147/85 148/148/85
f 149/149/86 141/141/86 144/144/86 150/150/86
f 146/146/87 151/151/87 152/152/87 147/147/87
f 153/153/88 149/149/88 150/150/88 154/154/88
f 151/151/89 155/155/89 156/156/89 152/152/89
f 139/139/90 157/157/90 158/158/90 159/159/90 160/160/90 161/161/90 162/162/90 163/163/90 164/164/90 165/165/90 154/154/90 150/150/90 144/144/90 143/143/90 166/166/90 167/167/90 168/168/90 169/169/90 170/170/90 171/171/90 172/172/90 148/148/90 147/147/90 152/152/90 156/156/90 173/173/90 174/174/90 175/175/90 176/176/90 177/177/90 178/178/90 179/179/90 180/180/90 140/140/90
f 138/138/91 137/137/91 181/181/91 182/182/91 183/183/91 184/184/91 185/185/91 186/186/91 187/187/91 188/188/91 155/155/91 151/151/91 146/146/91 145/145/91 189/189/91 190/190/91 191/191/91 192/192/91 193/193/91 194/194/91 195/195/91 142/142/91 141/141/91 149/149/91 153/153/91 196/196/91 197/197/91 198/198/91 199/199/91 200/200/91 201/201/91 202/202/91 203/203/91 204/204/91
f 189/189/92 145/145/92 148/148/92 172/172/92
f 142/142/93 195/195/93 166/166/93 143/143/93
f 138/138/94 204/204/94 157/157/94 139/139/94
f 190/190/95 189/189/95 172/172/95 171/171/95
f 181/181/96 137/137/97 140/140/97 180/180/96
f 204/204/98 203/203/98 158/158/98 157/157/98
f 191/191/99 190/190/99 171/171/99 170/170/99
f 182/182/100 181/181/96 180/180/96 179/179/100
f 203/203/101 202/202/101 159/159/101 158/158/101
f 192/192/102 191/191/102 170/170/102 169/169/102
f 183/183/103 182/182/103 179/179/103 178/178/103
f 202/202/104 201/201/104 160/160/104 159/159/104
f 193/193/105 192/192/105 169/169/105 168/168/105
f 184/184/106 183/183/106 178/178/106 177/177/106
f 201/201/107 200/200/107 161/161/107 160/160/107
f 194/194/108 193/193/108 168/168/108 167/167/108
f 185/185/109 184/184/109 177/177/109 176/176/109
f 200/200/110 199/199/110 162/162/110 161/161/110
f 195/195/111 194/194/111 167/167/111 166/166/111
f 186/186/112 185/185/112 176/176/112 175/175/112
f 199/199/113 198/198/113 163/163/113 162/162/113
f 187/187/114 186/186/114 175/175/114 174/174/114
f 198/198/115 197/197/116 164/164/116 163/163/115
f 188/188/117 187/187/117 174/174/117 173/173/117
f 197/197/116 196/196/118 165/165/118 164/164/116
f 155/155/119 188/188/119 173/173/119 156/156/119
f 196/196/120 153/153/120 154/154/120 165/165/120
