# Blender v2.93.1 OBJ File: ''
# www.blender.org
mtllib Final 2.mtl
o Cube.001
v -0.606628 -0.400000 -0.904668
v -0.604565 -0.400000 -0.906719
v -0.604565 -0.454091 -0.906719
v -0.606628 -0.454091 -0.904668
v 0.335660 -0.400000 -0.850244
v 0.340239 -0.400000 -0.833455
v 0.340239 -0.454091 -0.833455
v 0.335660 -0.454091 -0.850244
v 0.332327 -0.400000 -0.809717
v -0.960055 -0.400000 0.229464
v -0.960055 -0.454091 0.229464
v 0.332327 -0.454091 -0.809717
v -1.139406 -0.400000 0.139788
v -1.139406 -0.454091 0.139788
vt 0.000000 0.000000
vt 0.000000 0.000000
vt 0.000000 0.000000
vt 0.000000 0.000000
vt 0.000000 0.000000
vt 0.000000 0.000000
vt 0.000000 0.000000
vt 0.000000 0.000000
vt 0.000000 0.000000
vt 0.000000 0.000000
vt 0.000000 0.000000
vt 0.000000 0.000000
vt 0.000000 0.000000
vt 0.000000 0.000000
vn 0.7051 0.0000 0.7091
vn -0.9648 0.0000 0.2631
vn -0.6266 -0.0000 -0.7793
vn 0.8908 0.0000 0.4544
vn -0.0600 0.0000 0.9982
vn -0.9487 0.0000 -0.3162
vn 0.4472 -0.0000 -0.8944
vn 0.0000 1.0000 -0.0000
vn -0.0000 -1.0000 0.0000
usemtl Material.001
s 1
f 1/1/1 4/2/1 3/3/1 2/4/1
f 5/5/2 8/6/2 7/7/2 6/8/2
f 9/9/3 12/10/3 11/11/3 10/12/3
f 13/13/4 14/14/4 4/2/4 1/1/4
f 2/4/5 3/3/5 8/6/5 5/5/5
f 6/8/6 7/7/6 12/10/6 9/9/6
f 10/12/7 11/11/7 14/14/7 13/13/7
f 3/3/8 4/2/8 14/14/8 11/11/8 12/10/8 7/7/8 8/6/8
f 2/4/9 5/5/9 6/8/9 9/9/9 10/12/9 13/13/9 1/1/9
o Cube.003
v -0.512850 -0.200000 -0.769275
v 0.172171 -0.200000 -0.448744
v 0.210635 -0.200000 -0.534830
v -0.431759 -0.200102 -0.837644
v -0.437754 -0.200000 -0.838877
v -0.512855 -0.220853 -0.769266
v -0.437759 -0.220853 -0.838867
v -0.431763 -0.220955 -0.837634
v 0.210630 -0.220853 -0.534820
v 0.172167 -0.220853 -0.448734
vt 0.000000 0.000000
vt 0.000000 0.000000
vt 0.000000 0.000000
vt 0.000000 0.000000
vt 0.000000 0.000000
vt 0.000000 0.000000
vt 0.000000 0.000000
vt 0.000000 0.000000
vt 0.000000 0.000000
vt 0.000000 0.000000
vn -0.0002 -1.0000 0.0005
vn 0.0002 1.0000 -0.0005
vn -0.4264 0.0005 0.9045
vn 0.4238 -0.0005 -0.9057
vn -0.2014 0.0005 0.9795
vn -0.9130 0.0000 -0.4079
vn 0.6798 0.0002 0.7334
usemtl Material.003
s 1
f 15/15/10 19/16/10 18/17/10 17/18/10 16/19/10
f 20/20/11 24/21/11 23/22/11 22/23/11 21/24/11
f 18/17/12 22/23/12 23/22/12 17/18/12
f 16/19/13 24/21/13 20/20/13 15/15/13
f 19/16/14 21/24/14 22/23/14 18/17/14
f 17/18/15 23/22/15 24/21/15 16/19/15
f 15/15/16 20/20/16 21/24/16 19/16/16
o Cube.004
v -1.636343 -0.300000 1.454551
v -1.616101 -0.300000 1.442282
v -1.616101 -0.342272 1.442282
v -1.636343 -0.342272 1.454551
v -2.444009 -0.300000 1.289507
v -2.445287 -0.300000 1.303990
v -2.445287 -0.342272 1.303990
v -2.444009 -0.342272 1.289507
v -1.654132 -0.300000 1.463138
v -1.654132 -0.342272 1.463138
v -2.444009 -0.300000 1.316769
v -2.444009 -0.342272 1.316769
v -1.671307 -0.300000 1.469885
v -1.671307 -0.342272 1.469885
v -2.439324 -0.300000 1.330401
v -2.439324 -0.342272 1.330401
v -1.688482 -0.300000 1.475406
v -1.688482 -0.342272 1.475406
v -1.825271 -0.342272 1.491354
v -1.805029 -0.342272 1.493195
v -1.775585 -0.342272 1.491968
v -1.753503 -0.342272 1.490128
v -1.730194 -0.342272 1.487061
v -1.709952 -0.342272 1.482767
v -0.796965 -0.342272 0.819027
v -0.797849 -0.342272 0.802244
v -1.145122 -0.342272 0.032969
v -1.323154 -0.342272 -0.131876
v -1.327579 -0.342272 -0.128858
v -2.426544 -0.342272 1.242650
v -2.435916 -0.342272 1.259263
v -2.441453 -0.342272 1.274598
v -2.434212 -0.342272 1.341902
v -2.427396 -0.342272 1.349995
v -2.419303 -0.342272 1.356811
v -2.405672 -0.342272 1.364478
v -1.871276 -0.342272 1.484607
v -1.850420 -0.342272 1.488901
v -1.825271 -0.300000 1.491354
v -1.850420 -0.300000 1.488901
v -1.871276 -0.300000 1.484607
v -2.405672 -0.300000 1.364478
v -2.419303 -0.300000 1.356811
v -2.427396 -0.300000 1.349995
v -2.434212 -0.300000 1.341902
v -2.441453 -0.300000 1.274598
v -2.435916 -0.300000 1.259263
v -2.426544 -0.300000 1.242650
v -1.327579 -0.300000 -0.128858
v -1.323154 -0.300000 -0.131876
v -1.145122 -0.300000 0.032969
v -0.797849 -0.300000 0.802244
v -0.796965 -0.300000 0.819027
v -1.709952 -0.300000 1.482767
v -1.730194 -0.300000 1.487061
v -1.753503 -0.300000 1.490128
v -1.775585 -0.300000 1.491968
v -1.805029 -0.300000 1.493195
vt 0.000000 0.000000
vt 0.000000 0.000000
vt 0.000000 0.000000
vt 0.000000 0.000000
vt 0.000000 0.000000
vt 0.000000 0.000000
vt 0.000000 0.000000
vt 0.000000 0.000000
vt 0.000000 0.000000
vt 0.000000 0.000000
vt 0.000000 0.000000
vt 0.000000 0.000000
vt 0.000000 0.000000
vt 0.000000 0.000000
vt 0.000000 0.000000
vt 0.000000 0.000000
vt 0.000000 0.000000
vt 0.000000 0.000000
vt 0.000000 0.000000
vt 0.000000 0.000000
vt 0.000000 0.000000
vt 0.000000 0.000000
vt 0.000000 0.000000
vt 0.000000 0.000000
vt 0.000000 0.000000
vt 0.000000 0.000000
vt 0.000000 0.000000
vt 0.000000 0.000000
vt 0.000000 0.000000
vt 0.000000 0.000000
vt 0.000000 0.000000
vt 0.000000 0.000000
vt 0.000000 0.000000
vt 0.000000 0.000000
vt 0.000000 0.000000
vt 0.000000 0.000000
vt 0.000000 0.000000
vt 0.000000 0.000000
vt 0.000000 0.000000
vt 0.000000 0.000000
vt 0.000000 0.000000
vt 0.000000 0.000000
vt 0.000000 0.000000
vt 0.000000 0.000000
vt 0.000000 0.000000
vt 0.000000 0.000000
vt 0.000000 0.000000
vt 0.000000 0.000000
vt 0.000000 0.000000
vt 0.000000 0.000000
vt 0.000000 0.000000
vt 0.000000 0.000000
vt 0.000000 0.000000
vt 0.000000 0.000000
vt 0.000000 0.000000
vt 0.000000 0.000000
vt 0.000000 0.000000
vt 0.000000 0.000000
vn 0.5183 0.0000 0.8552
vn -0.9961 0.0000 -0.0879
vn 0.4347 0.0000 0.9006
vn -0.9950 0.0000 0.0995
vn 0.3656 0.0000 0.9308
vn -0.9457 0.0000 0.3250
vn 0.3060 0.0000 0.9520
vn -0.0000 -1.0000 0.0000
vn 0.0000 1.0000 -0.0000
vn -0.9856 0.0000 -0.1690
vn 0.6055 0.0000 0.7958
vn -0.9406 0.0000 -0.3396
vn 0.9986 0.0000 -0.0526
vn -0.8710 0.0000 -0.4913
vn 0.9114 -0.0000 -0.4114
vn -0.0971 0.0000 0.9953
vn -0.0938 0.0000 0.9956
vn -0.7804 0.0000 -0.6253
vn 0.6794 0.0000 -0.7338
vn -0.0906 0.0000 0.9959
vn -0.5635 -0.0000 -0.8261
vn -0.2017 0.0000 0.9795
vn 0.0416 0.0000 0.9991
vn -0.2193 0.0000 0.9757
vn 0.0830 0.0000 0.9965
vn -0.4902 0.0000 0.8716
vn 0.1305 0.0000 0.9915
vn -0.6442 0.0000 0.7649
vn 0.2075 0.0000 0.9782
vn -0.7649 0.0000 0.6442
vn 0.3243 0.0000 0.9459
vn -0.9138 0.0000 0.4062
usemtl Material.004
s 1
f 25/25/17 28/26/17 27/27/17 26/28/17
f 29/29/18 32/30/18 31/31/18 30/32/18
f 33/33/19 34/34/19 28/26/19 25/25/19
f 30/32/20 31/31/20 36/35/20 35/36/20
f 37/37/21 38/38/21 34/34/21 33/33/21
f 35/36/22 36/35/22 40/39/22 39/40/22
f 41/41/23 42/42/23 38/38/23 37/37/23
f 43/43/24 62/44/24 61/45/24 60/46/24 59/47/24 58/48/24 57/49/24 40/39/24 36/35/24 31/31/24 32/30/24 56/50/24 55/51/24 54/52/24 53/53/24 52/54/24 51/55/24 50/56/24 49/57/24 27/27/24 28/26/24 34/34/24 38/38/24 42/42/24 48/58/24 47/59/24 46/60/24 45/61/24 44/62/24
f 63/63/25 82/64/25 81/65/25 80/66/25 79/67/25 78/68/25 41/41/25 37/37/25 33/33/25 25/25/25 26/28/25 77/69/25 76/70/25 75/71/25 74/72/25 73/73/25 72/74/25 71/75/25 70/76/25 29/29/25 30/32/25 35/36/25 39/40/25 69/77/25 68/78/25 67/79/25 66/80/25 65/81/25 64/82/25
f 70/76/26 56/50/26 32/30/26 29/29/26
f 26/28/27 27/27/27 49/57/27 77/69/27
f 71/75/28 55/51/28 56/50/28 70/76/28
f 77/69/29 49/57/29 50/56/29 76/70/29
f 72/74/30 54/52/30 55/51/30 71/75/30
f 76/70/31 50/56/31 51/55/31 75/71/31
f 64/82/32 62/44/32 43/43/33 63/63/33
f 73/73/34 53/53/34 54/52/34 72/74/34
f 75/71/35 51/55/35 52/54/35 74/72/35
f 63/63/33 43/43/33 44/62/36 82/64/36
f 74/72/37 52/54/37 53/53/37 73/73/37
f 65/81/38 61/45/38 62/44/38 64/82/38
f 82/64/39 44/62/39 45/61/39 81/65/39
f 66/80/40 60/46/40 61/45/40 65/81/40
f 81/65/41 45/61/41 46/60/41 80/66/41
f 67/79/42 59/47/42 60/46/42 66/80/42
f 80/66/43 46/60/43 47/59/43 79/67/43
f 68/78/44 58/48/44 59/47/44 67/79/44
f 79/67/45 47/59/45 48/58/45 78/68/45
f 69/77/46 57/49/46 58/48/46 68/78/46
f 78/68/47 48/58/47 42/42/47 41/41/47
f 39/40/48 40/39/48 57/49/48 69/77/48
o Cube.005
v 0.284852 -0.100000 -0.325997
v 0.282485 -0.100000 -0.328652
v 0.282485 -0.147588 -0.328652
v 0.284852 -0.147588 -0.325997
v -0.210054 -0.100000 0.636570
v -0.185027 -0.100000 0.618168
v -0.185027 -0.147588 0.618168
v -0.210054 -0.147588 0.636570
v -0.231401 -0.100000 0.650555
v -0.231401 -0.147588 0.650555
v -0.072795 -0.100000 0.484248
v -0.072795 -0.147588 0.484248
v -0.256427 -0.100000 0.664541
v -0.256427 -0.147588 0.664541
v -0.103322 -0.100000 0.531310
v -0.103322 -0.147588 0.531310
v -0.282190 -0.100000 0.678526
v -0.282190 -0.147588 0.678526
v -1.138283 -0.147588 0.164865
v -0.909332 -0.147588 0.984000
v -0.161473 -0.147588 0.595349
v -0.144543 -0.147588 0.579891
v -0.123196 -0.147588 0.556337
v -0.123196 -0.100000 0.556337
v -0.144543 -0.100000 0.579891
v -0.161473 -0.100000 0.595349
v -0.909332 -0.100000 0.984000
v -1.138283 -0.100000 0.164865
vt 0.000000 0.000000
vt 0.000000 0.000000
vt 0.000000 0.000000
vt 0.000000 0.000000
vt 0.000000 0.000000
vt 0.000000 0.000000
vt 0.000000 0.000000
vt 0.000000 0.000000
vt 0.000000 0.000000
vt 0.000000 0.000000
vt 0.000000 0.000000
vt 0.000000 0.000000
vt 0.000000 0.000000
vt 0.000000 0.000000
vt 0.000000 0.000000
vt 0.000000 0.000000
vt 0.000000 0.000000
vt 0.000000 0.000000
vt 0.000000 0.000000
vt 0.000000 0.000000
vt 0.000000 0.000000
vt 0.000000 0.000000
vt 0.000000 0.000000
vt 0.000000 0.000000
vt 0.000000 0.000000
vt 0.000000 0.000000
vt 0.000000 0.000000
vt 0.000000 0.000000
vn 0.7464 0.0000 -0.6655
vn 0.5924 0.0000 0.8057
vn 0.5480 0.0000 0.8365
vn 0.9148 0.0000 0.4038
vn 0.4825 0.0000 0.8759
vn 0.4878 0.0000 0.8729
vn 0.8390 0.0000 0.5442
vn 0.4771 0.0000 0.8789
vn -0.0000 -1.0000 0.0000
vn 0.0000 1.0000 -0.0000
vn 0.6958 0.0000 0.7182
vn -0.3281 -0.0000 -0.9446
vn 0.6743 0.0000 0.7385
vn -0.9631 0.0000 0.2692
vn 0.7410 0.0000 0.6715
vn 0.4379 0.0000 0.8990
vn 0.7831 0.0000 0.6219
usemtl Material.005
s 1
f 83/83/49 86/84/49 85/85/49 84/86/49
f 87/87/50 90/88/50 89/89/50 88/90/50
f 91/91/51 92/92/51 90/88/51 87/87/51
f 93/93/52 94/94/52 86/84/52 83/83/52
f 95/95/53 96/96/53 92/92/54 91/91/54
f 97/97/55 98/98/55 94/94/55 93/93/55
f 99/99/56 100/100/56 96/96/53 95/95/53
f 85/85/57 86/84/57 94/94/57 98/98/57 105/101/57 104/102/57 103/103/57 89/89/57 90/88/57 92/92/57 96/96/57 100/100/57 102/104/57 101/105/57
f 84/86/58 110/106/58 109/107/58 99/99/58 95/95/58 91/91/58 87/87/58 88/90/58 108/108/58 107/109/58 106/110/58 97/97/58 93/93/58 83/83/58
f 88/90/59 89/89/59 103/103/59 108/108/59
f 84/86/60 85/85/60 101/105/60 110/106/60
f 108/108/61 103/103/61 104/102/61 107/109/61
f 110/106/62 101/105/62 102/104/62 109/107/62
f 107/109/63 104/102/63 105/101/63 106/110/63
f 109/107/64 102/104/64 100/100/64 99/99/64
f 106/110/65 105/101/65 98/98/65 97/97/65
o Cube.006
v 0.087230 -0.250000 -0.289038
v -1.108810 -0.250000 0.134064
v -1.108810 -0.294439 0.134064
v 0.087230 -0.294439 -0.289038
v -1.223514 -0.250000 0.126381
v -1.344400 -0.250000 -0.029306
v -1.344400 -0.294439 -0.029306
v -1.223514 -0.294439 0.126381
v 0.140347 -0.250000 -0.398934
v 0.140347 -0.294439 -0.398934
v -1.206555 -0.250000 0.148640
v -1.206555 -0.294439 0.148640
v -1.201255 -0.250000 0.170899
v -1.201255 -0.294439 0.170899
v -1.194895 -0.250000 0.196338
v -1.194895 -0.294439 0.196338
v 0.144697 -0.250000 -0.406617
v 0.144697 -0.294439 -0.406617
v -0.832237 -0.294439 0.745821
v -1.064851 -0.294439 0.877696
v -1.271136 -0.294439 -0.093412
v -1.144755 -0.294439 0.049453
v -1.144755 -0.250000 0.049453
v -1.271136 -0.250000 -0.093412
v -1.064851 -0.250000 0.877696
v -0.832237 -0.250000 0.745821
vt 0.000000 0.000000
vt 0.000000 0.000000
vt 0.000000 0.000000
vt 0.000000 0.000000
vt 0.000000 0.000000
vt 0.000000 0.000000
vt 0.000000 0.000000
vt 0.000000 0.000000
vt 0.000000 0.000000
vt 0.000000 0.000000
vt 0.000000 0.000000
vt 0.000000 0.000000
vt 0.000000 0.000000
vt 0.000000 0.000000
vt 0.000000 0.000000
vt 0.000000 0.000000
vt 0.000000 0.000000
vt 0.000000 0.000000
vt 0.000000 0.000000
vt 0.000000 0.000000
vt 0.000000 0.000000
vt 0.000000 0.000000
vt 0.000000 0.000000
vt 0.000000 0.000000
vt 0.000000 0.000000
vt 0.000000 0.000000
vn -0.3335 -0.0000 -0.9428
vn 0.7927 0.0000 -0.6097
vn 0.7899 0.0000 -0.6133
vn -0.9003 -0.0000 -0.4352
vn 0.7954 0.0000 -0.6060
vn 0.9715 0.0000 -0.2371
vn 0.9728 0.0000 -0.2316
vn 0.9701 0.0000 -0.2425
vn -0.8702 -0.0000 -0.4927
vn 0.0000 1.0000 -0.0000
vn -0.0000 -1.0000 0.0000
vn 0.6585 -0.0000 0.7526
vn -0.9112 0.0000 0.4120
vn -0.7490 0.0000 0.6626
vn -0.4932 0.0000 -0.8699
vn 0.3335 0.0000 0.9428
vn 0.9823 0.0000 -0.1875
usemtl Material.006
s 1
f 111/111/66 114/112/66 113/113/66 112/114/66
f 115/115/67 118/116/67 117/117/68 116/118/68
f 119/119/69 120/120/69 114/112/69 111/111/69
f 121/121/70 122/122/70 118/116/67 115/115/67
f 123/123/71 124/124/71 122/122/72 121/121/72
f 125/125/73 126/126/73 124/124/71 123/123/71
f 127/127/74 128/128/74 120/120/74 119/119/74
f 114/112/75 120/120/75 128/128/75 132/129/75 131/130/75 117/117/75 118/116/75 122/122/75 124/124/75 126/126/75 130/131/75 129/132/75 113/113/75
f 111/111/76 112/114/76 136/133/76 135/134/76 125/125/76 123/123/76 121/121/76 115/115/76 116/118/76 134/135/76 133/136/76 127/127/76 119/119/76
f 116/118/77 117/117/77 131/130/77 134/135/77
f 112/114/78 113/113/78 129/132/78 136/133/78
f 134/135/79 131/130/79 132/129/79 133/136/79
f 136/133/80 129/132/80 130/131/80 135/134/80
f 133/136/81 132/129/81 128/128/81 127/127/81
f 135/134/82 130/131/82 126/126/82 125/125/82
o Cube.007
v 0.177940 -0.200000 -1.406396
v 0.160546 -0.200000 -1.398942
v 0.160546 -0.237143 -1.398942
v 0.177940 -0.237143 -1.406396
v -0.288537 -0.200000 -0.953982
v -0.285129 -0.200000 -0.949723
v -0.285129 -0.237143 -0.949723
v -0.288537 -0.237143 -0.953982
v 0.777000 -0.200000 -1.440687
v 0.770611 -0.200000 -1.450910
v 0.770611 -0.237143 -1.450910
v 0.777000 -0.237143 -1.440687
v -0.288963 -0.200000 -0.959520
v -0.288963 -0.237143 -0.959520
v 0.764647 -0.200000 -1.457726
v 0.764647 -0.237143 -1.457726
v -0.285981 -0.200000 -0.965058
v -0.285981 -0.237143 -0.965058
v 0.757831 -0.200000 -1.463264
v 0.757831 -0.237143 -1.463264
v 0.145637 -0.237143 -1.391842
v 0.132502 -0.237143 -1.386162
v 0.120433 -0.237143 -1.380128
v 0.108364 -0.237143 -1.373738
v 0.095585 -0.237143 -1.366639
v 0.081386 -0.237143 -1.357409
v 0.068251 -0.237143 -1.349245
v 0.056182 -0.237143 -1.338950
v 0.043048 -0.237143 -1.327946
v 0.500300 -0.237143 -0.762110
v 0.502232 -0.237143 -0.765674
v 0.778704 -0.237143 -1.373383
v 0.783816 -0.237143 -1.388718
v 0.786798 -0.237143 -1.405757
v 0.786372 -0.237143 -1.416832
v 0.783816 -0.237143 -1.428334
v 0.747608 -0.237143 -1.469227
v 0.737811 -0.237143 -1.472209
v 0.279463 -0.237143 -1.433019
v 0.257810 -0.237143 -1.430180
v 0.240416 -0.237143 -1.425920
v 0.223377 -0.237143 -1.420950
v 0.210243 -0.237143 -1.417400
v 0.194623 -0.237143 -1.412076
v 0.194623 -0.200000 -1.412076
v 0.210243 -0.200000 -1.417400
v 0.223377 -0.200000 -1.420950
v 0.240416 -0.200000 -1.425920
v 0.257810 -0.200000 -1.430180
v 0.279463 -0.200000 -1.433019
v 0.737811 -0.200000 -1.472209
v 0.747608 -0.200000 -1.469227
v 0.783816 -0.200000 -1.428334
v 0.786372 -0.200000 -1.416832
v 0.786798 -0.200000 -1.405757
v 0.783816 -0.200000 -1.388718
v 0.778704 -0.200000 -1.373383
v 0.502232 -0.200000 -0.765674
v 0.500300 -0.200000 -0.762110
v 0.043048 -0.200000 -1.327946
v 0.056182 -0.200000 -1.338950
v 0.068251 -0.200000 -1.349245
v 0.081386 -0.200000 -1.357409
v 0.095585 -0.200000 -1.366639
v 0.108364 -0.200000 -1.373738
v 0.120433 -0.200000 -1.380128
v 0.132502 -0.200000 -1.386162
v 0.145637 -0.200000 -1.391842
vt 0.000000 0.000000
vt 0.000000 0.000000
vt 0.000000 0.000000
vt 0.000000 0.000000
vt 0.000000 0.000000
vt 0.000000 0.000000
vt 0.000000 0.000000
vt 0.000000 0.000000
vt 0.000000 0.000000
vt 0.000000 0.000000
vt 0.000000 0.000000
vt 0.000000 0.000000
vt 0.000000 0.000000
vt 0.000000 0.000000
vt 0.000000 0.000000
vt 0.000000 0.000000
vt 0.000000 0.000000
vt 0.000000 0.000000
vt 0.000000 0.000000
vt 0.000000 0.000000
vt 0.000000 0.000000
vt 0.000000 0.000000
vt 0.000000 0.000000
vt 0.000000 0.000000
vt 0.000000 0.000000
vt 0.000000 0.000000
vt 0.000000 0.000000
vt 0.000000 0.000000
vt 0.000000 0.000000
vt 0.000000 0.000000
vt 0.000000 0.000000
vt 0.000000 0.000000
vt 0.000000 0.000000
vt 0.000000 0.000000
vt 0.000000 0.000000
vt 0.000000 0.000000
vt 0.000000 0.000000
vt 0.000000 0.000000
vt 0.000000 0.000000
vt 0.000000 0.000000
vt 0.000000 0.000000
vt 0.000000 0.000000
vt 0.000000 0.000000
vt 0.000000 0.000000
vt 0.000000 0.000000
vt 0.000000 0.000000
vt 0.000000 0.000000
vt 0.000000 0.000000
vt 0.000000 0.000000
vt 0.000000 0.000000
vt 0.000000 0.000000
vt 0.000000 0.000000
vt 0.000000 0.000000
vt 0.000000 0.000000
vt 0.000000 0.000000
vt 0.000000 0.000000
vt 0.000000 0.000000
vt 0.000000 0.000000
vt 0.000000 0.000000
vt 0.000000 0.000000
vt 0.000000 0.000000
vt 0.000000 0.000000
vt 0.000000 0.000000
vt 0.000000 0.000000
vt 0.000000 0.000000
vt 0.000000 0.000000
vt 0.000000 0.000000
vt 0.000000 0.000000
vn -0.3939 0.0000 -0.9192
vn -0.7808 0.0000 0.6248
vn 0.8480 0.0000 -0.5300
vn -0.9971 0.0000 0.0767
vn 0.7526 0.0000 -0.6585
vn -0.8805 0.0000 -0.4741
vn 0.6306 0.0000 -0.7761
vn 0.0000 -1.0000 0.0000
vn -0.0000 1.0000 -0.0000
vn 0.8756 0.0000 -0.4831
vn -0.2323 0.0000 0.9726
vn -0.4300 0.0000 -0.9028
vn 0.9762 0.0000 -0.2169
vn -0.3225 0.0000 -0.9466
vn -0.3223 0.0000 -0.9466
vn -0.3969 0.0000 -0.9179
vn 0.9993 0.0000 -0.0384
vn -0.3226 0.0000 -0.9465
vn -0.4472 0.0000 -0.8944
vn 0.9850 0.0000 0.1724
vn -0.2609 0.0000 -0.9654
vn -0.4679 0.0000 -0.8838
vn 0.9487 0.0000 0.3162
vn -0.2800 0.0000 -0.9600
vn -0.4856 0.0000 -0.8742
vn 0.9102 0.0000 0.4141
vn -0.2379 0.0000 -0.9713
vn -0.5450 0.0000 -0.8384
vn 0.8791 0.0000 0.4766
vn -0.1300 0.0000 -0.9915
vn -0.5279 0.0000 -0.8493
vn -0.0852 0.0000 -0.9964
vn -0.6490 0.0000 -0.7608
vn -0.6456 0.0000 -0.7637
vn 0.2912 0.0000 -0.9567
vn -0.6422 0.0000 -0.7665
vn 0.5038 0.0000 -0.8638
vn -0.7408 0.0000 -0.6717
usemtl Material.007
s 1
f 137/137/83 140/138/83 139/139/83 138/140/83
f 141/141/84 144/142/84 143/143/84 142/144/84
f 145/145/85 148/146/85 147/147/85 146/148/85
f 149/149/86 150/150/86 144/142/86 141/141/86
f 146/148/87 147/147/87 152/151/87 151/152/87
f 153/153/88 154/154/88 150/150/88 149/149/88
f 151/152/89 152/151/89 156/155/89 155/156/89
f 139/139/90 140/138/90 180/157/90 179/158/90 178/159/90 177/160/90 176/161/90 175/162/90 174/163/90 173/164/90 156/155/90 152/151/90 147/147/90 148/146/90 172/165/90 171/166/90 170/167/90 169/168/90 168/169/90 167/170/90 166/171/90 143/143/90 144/142/90 150/150/90 154/154/90 165/172/90 164/173/90 163/174/90 162/175/90 161/176/90 160/177/90 159/178/90 158/179/90 157/180/90
f 138/140/91 204/181/91 203/182/91 202/183/91 201/184/91 200/185/91 199/186/91 198/187/91 197/188/91 196/189/91 153/153/91 149/149/91 141/141/91 142/144/91 195/190/91 194/191/91 193/192/91 192/193/91 191/194/91 190/195/91 189/196/91 145/145/91 146/148/91 151/152/91 155/156/91 188/197/91 187/198/91 186/199/91 185/200/91 184/201/91 183/202/91 182/203/91 181/204/91 137/137/91
f 189/196/92 172/165/92 148/146/92 145/145/92
f 142/144/93 143/143/93 166/171/93 195/190/93
f 138/140/94 139/139/94 157/180/94 204/181/94
f 190/195/95 171/166/95 172/165/95 189/196/95
f 181/204/96 180/157/96 140/138/97 137/137/97
f 204/181/98 157/180/98 158/179/98 203/182/98
f 191/194/99 170/167/99 171/166/99 190/195/99
f 182/203/100 179/158/100 180/157/96 181/204/96
f 203/182/101 158/179/101 159/178/101 202/183/101
f 192/193/102 169/168/102 170/167/102 191/194/102
f 183/202/103 178/159/103 179/158/103 182/203/103
f 202/183/104 159/178/104 160/177/104 201/184/104
f 193/192/105 168/169/105 169/168/105 192/193/105
f 184/201/106 177/160/106 178/159/106 183/202/106
f 201/184/107 160/177/107 161/176/107 200/185/107
f 194/191/108 167/170/108 168/169/108 193/192/108
f 185/200/109 176/161/109 177/160/109 184/201/109
f 200/185/110 161/176/110 162/175/110 199/186/110
f 195/190/111 166/171/111 167/170/111 194/191/111
f 186/199/112 175/162/112 176/161/112 185/200/112
f 199/186/113 162/175/113 163/174/113 198/187/113
f 187/198/114 174/163/114 175/162/114 186/199/114
f 198/187/115 163/174/115 164/173/116 197/188/116
f 188/197/117 173/164/117 174/163/117 187/198/117
f 197/188/116 164/173/116 165/172/118 196/189/118
f 155/156/119 156/155/119 173/164/119 188/197/119
f 196/189/120 165/172/120 154/154/120 153/153/120
