# Vectary OBJ Export units=mm
mtllib Steve says Hi! (copy).mtl
o 000_Buffer_Layer
g Buffer_Layer
usemtl Buffer Layer material_fa9aba54-3f81-4731-a69d-64d1bd7cfbbd
o 001_Box_5
g Box_5
usemtl Glass Sanding 1_940dbb09-6be6-42ee-a14b-0b74ff34a00a
v 20.659 0.000 -37.639
v -1.977 0.000 -40.310
v 20.659 0.000 -40.310
v -1.977 0.000 -37.639
v -24.612 0.000 -40.310
v -24.612 0.000 -37.639
v -1.977 0.000 -42.980
v 20.659 0.000 -42.980
v -24.612 0.000 -42.980
v -24.612 45.510 -40.310
v -24.612 45.510 -42.980
v -24.612 45.510 -37.639
v -24.612 91.020 -40.310
v -24.612 91.020 -42.980
v -24.612 91.020 -37.639
v -1.977 45.510 -37.639
v 20.659 45.510 -37.639
v -1.977 91.020 -37.639
v 20.659 91.020 -37.639
v -1.977 45.510 -42.980
v 20.659 45.510 -42.980
v -1.977 91.020 -42.980
v 20.659 91.020 -42.980
v 20.659 45.510 -40.310
v 20.659 91.020 -40.310
v -1.977 91.020 -40.310
vn 0.00000 -1.00000 -0.00000
vn 0.00000 -1.00000 -0.00000
vn 0.00000 -1.00000 -0.00000
vn 0.00000 -1.00000 -0.00000
vn 0.00000 -1.00000 -0.00000
vn 0.00000 -1.00000 -0.00000
vn 0.00000 -1.00000 -0.00000
vn 0.00000 -1.00000 -0.00000
vn 0.00000 -1.00000 -0.00000
vn 0.00000 -1.00000 -0.00000
vn 0.00000 -1.00000 -0.00000
vn 0.00000 -1.00000 -0.00000
vn 0.00000 -1.00000 -0.00000
vn 0.00000 -1.00000 -0.00000
vn 0.00000 -1.00000 -0.00000
vn 0.00000 -1.00000 -0.00000
vn -1.00000 0.00000 0.00000
vn -1.00000 0.00000 0.00000
vn -1.00000 0.00000 0.00000
vn -1.00000 0.00000 0.00000
vn -1.00000 0.00000 0.00000
vn -1.00000 0.00000 0.00000
vn -1.00000 0.00000 0.00000
vn -1.00000 0.00000 0.00000
vn -1.00000 0.00000 0.00000
vn -1.00000 0.00000 0.00000
vn -1.00000 0.00000 0.00000
vn -1.00000 0.00000 0.00000
vn -1.00000 0.00000 0.00000
vn -1.00000 0.00000 0.00000
vn -1.00000 0.00000 0.00000
vn -1.00000 0.00000 0.00000
vn 0.00000 -0.00000 1.00000
vn 0.00000 -0.00000 1.00000
vn 0.00000 -0.00000 1.00000
vn 0.00000 -0.00000 1.00000
vn 0.00000 -0.00000 1.00000
vn 0.00000 -0.00000 1.00000
vn 0.00000 -0.00000 1.00000
vn 0.00000 -0.00000 1.00000
vn 0.00000 -0.00000 1.00000
vn 0.00000 -0.00000 1.00000
vn 0.00000 -0.00000 1.00000
vn 0.00000 -0.00000 1.00000
vn 0.00000 -0.00000 1.00000
vn 0.00000 -0.00000 1.00000
vn 0.00000 -0.00000 1.00000
vn 0.00000 -0.00000 1.00000
vn 0.00000 0.00000 -1.00000
vn 0.00000 0.00000 -1.00000
vn 0.00000 0.00000 -1.00000
vn 0.00000 0.00000 -1.00000
vn 0.00000 0.00000 -1.00000
vn 0.00000 0.00000 -1.00000
vn 0.00000 0.00000 -1.00000
vn 0.00000 0.00000 -1.00000
vn 0.00000 0.00000 -1.00000
vn 0.00000 0.00000 -1.00000
vn 0.00000 0.00000 -1.00000
vn 0.00000 0.00000 -1.00000
vn 0.00000 0.00000 -1.00000
vn 0.00000 0.00000 -1.00000
vn 0.00000 0.00000 -1.00000
vn 0.00000 0.00000 -1.00000
vn 1.00000 0.00000 0.00000
vn 1.00000 0.00000 0.00000
vn 1.00000 0.00000 0.00000
vn 1.00000 0.00000 0.00000
vn 1.00000 0.00000 0.00000
vn 1.00000 0.00000 0.00000
vn 1.00000 0.00000 0.00000
vn 1.00000 0.00000 0.00000
vn 1.00000 0.00000 0.00000
vn 1.00000 0.00000 0.00000
vn 1.00000 0.00000 0.00000
vn 1.00000 0.00000 0.00000
vn 1.00000 0.00000 0.00000
vn 1.00000 0.00000 0.00000
vn 1.00000 0.00000 0.00000
vn 1.00000 0.00000 0.00000
vn 0.00000 1.00000 0.00000
vn 0.00000 1.00000 0.00000
vn 0.00000 1.00000 0.00000
vn 0.00000 1.00000 0.00000
vn 0.00000 1.00000 0.00000
vn 0.00000 1.00000 0.00000
vn 0.00000 1.00000 0.00000
vn 0.00000 1.00000 0.00000
vn 0.00000 1.00000 0.00000
vn 0.00000 1.00000 0.00000
vn 0.00000 1.00000 0.00000
vn 0.00000 1.00000 0.00000
vn 0.00000 1.00000 0.00000
vn 0.00000 1.00000 0.00000
vn 0.00000 1.00000 0.00000
vn 0.00000 1.00000 0.00000
f 3//3 1//1 4//4 2//2 
f 2//7 4//5 6//8 5//6 
f 8//11 3//9 2//12 7//10 
f 7//15 2//13 5//16 9//14 
f 11//19 9//17 5//20 10//18 
f 10//23 5//21 6//24 12//22 
f 14//27 11//25 10//28 13//26 
f 13//31 10//29 12//32 15//30 
f 12//35 6//33 4//36 16//34 
f 16//39 4//37 1//40 17//38 
f 15//43 12//41 16//44 18//42 
f 18//47 16//45 17//48 19//46 
f 21//51 8//49 7//52 20//50 
f 20//55 7//53 9//56 11//54 
f 23//59 21//57 20//60 22//58 
f 22//63 20//61 11//64 14//62 
f 17//67 1//65 3//68 24//66 
f 24//71 3//69 8//72 21//70 
f 19//75 17//73 24//76 25//74 
f 25//79 24//77 21//80 23//78 
f 13//83 15//81 18//84 26//82 
f 26//87 18//85 19//88 25//86 
f 14//91 13//89 26//92 22//90 
f 22//95 26//93 25//96 23//94 
o 002_Box_4
g Box_4
usemtl Glass Sanding 1_940dbb09-6be6-42ee-a14b-0b74ff34a00a
v -38.271 0.000 -27.792
v -47.568 0.000 -10.922
v -41.340 0.000 -28.742
v -44.499 0.000 -9.971
v -53.795 -0.000 6.899
v -50.727 -0.000 7.850
v -50.636 0.000 -11.872
v -44.409 0.000 -29.693
v -56.864 -0.000 5.949
v -53.795 45.510 6.899
v -56.864 45.510 5.949
v -50.727 45.510 7.850
v -53.795 91.020 6.899
v -56.864 91.020 5.949
v -50.727 91.020 7.850
v -44.499 45.510 -9.971
v -38.271 45.510 -27.792
v -44.499 91.020 -9.971
v -38.271 91.020 -27.792
v -50.636 45.510 -11.872
v -44.409 45.510 -29.693
v -50.636 91.020 -11.872
v -44.409 91.020 -29.693
v -41.340 45.510 -28.742
v -41.340 91.020 -28.742
v -47.568 91.020 -10.922
vn 0.00000 -1.00000 -0.00000
vn 0.00000 -1.00000 -0.00000
vn 0.00000 -1.00000 -0.00000
vn 0.00000 -1.00000 -0.00000
vn 0.00000 -1.00000 -0.00000
vn 0.00000 -1.00000 -0.00000
vn 0.00000 -1.00000 -0.00000
vn 0.00000 -1.00000 -0.00000
vn 0.00000 -1.00000 -0.00000
vn 0.00000 -1.00000 -0.00000
vn 0.00000 -1.00000 -0.00000
vn 0.00000 -1.00000 -0.00000
vn 0.00000 -1.00000 -0.00000
vn 0.00000 -1.00000 -0.00000
vn 0.00000 -1.00000 -0.00000
vn 0.00000 -1.00000 -0.00000
vn -0.29585 -0.00000 0.95523
vn -0.29585 -0.00000 0.95523
vn -0.29585 -0.00000 0.95523
vn -0.29585 -0.00000 0.95523
vn -0.29585 -0.00000 0.95523
vn -0.29585 -0.00000 0.95523
vn -0.29585 -0.00000 0.95523
vn -0.29585 -0.00000 0.95523
vn -0.29585 -0.00000 0.95523
vn -0.29585 -0.00000 0.95523
vn -0.29585 -0.00000 0.95523
vn -0.29585 -0.00000 0.95523
vn -0.29585 -0.00000 0.95523
vn -0.29585 -0.00000 0.95523
vn -0.29585 -0.00000 0.95523
vn -0.29585 -0.00000 0.95523
vn 0.94401 -0.00000 0.32990
vn 0.94401 -0.00000 0.32990
vn 0.94401 -0.00000 0.32990
vn 0.94401 -0.00000 0.32990
vn 0.94401 -0.00000 0.32990
vn 0.94401 -0.00000 0.32990
vn 0.94401 -0.00000 0.32990
vn 0.94401 -0.00000 0.32990
vn 0.94401 -0.00000 0.32990
vn 0.94401 -0.00000 0.32990
vn 0.94401 -0.00000 0.32990
vn 0.94401 -0.00000 0.32990
vn 0.94401 -0.00000 0.32990
vn 0.94401 -0.00000 0.32990
vn 0.94401 -0.00000 0.32990
vn 0.94401 -0.00000 0.32990
vn -0.94401 0.00000 -0.32990
vn -0.94401 0.00000 -0.32990
vn -0.94401 0.00000 -0.32990
vn -0.94401 0.00000 -0.32990
vn -0.94401 0.00000 -0.32990
vn -0.94401 0.00000 -0.32990
vn -0.94401 0.00000 -0.32990
vn -0.94401 0.00000 -0.32990
vn -0.94401 0.00000 -0.32990
vn -0.94401 0.00000 -0.32990
vn -0.94401 0.00000 -0.32990
vn -0.94401 0.00000 -0.32990
vn -0.94401 0.00000 -0.32990
vn -0.94401 0.00000 -0.32990
vn -0.94401 0.00000 -0.32990
vn -0.94401 0.00000 -0.32990
vn 0.29585 0.00000 -0.95523
vn 0.29585 0.00000 -0.95523
vn 0.29585 0.00000 -0.95523
vn 0.29585 0.00000 -0.95523
vn 0.29585 0.00000 -0.95523
vn 0.29585 0.00000 -0.95523
vn 0.29585 0.00000 -0.95523
vn 0.29585 0.00000 -0.95523
vn 0.29585 0.00000 -0.95523
vn 0.29585 0.00000 -0.95523
vn 0.29585 0.00000 -0.95523
vn 0.29585 0.00000 -0.95523
vn 0.29585 0.00000 -0.95523
vn 0.29585 0.00000 -0.95523
vn 0.29585 0.00000 -0.95523
vn 0.29585 0.00000 -0.95523
vn 0.00000 1.00000 0.00000
vn 0.00000 1.00000 0.00000
vn 0.00000 1.00000 0.00000
vn 0.00000 1.00000 0.00000
vn 0.00000 1.00000 0.00000
vn 0.00000 1.00000 0.00000
vn 0.00000 1.00000 0.00000
vn 0.00000 1.00000 0.00000
vn 0.00000 1.00000 0.00000
vn 0.00000 1.00000 0.00000
vn 0.00000 1.00000 0.00000
vn 0.00000 1.00000 0.00000
vn 0.00000 1.00000 0.00000
vn 0.00000 1.00000 0.00000
vn 0.00000 1.00000 0.00000
vn 0.00000 1.00000 0.00000
f 29//99 27//97 30//100 28//98 
f 28//103 30//101 32//104 31//102 
f 34//107 29//105 28//108 33//106 
f 33//111 28//109 31//112 35//110 
f 37//115 35//113 31//116 36//114 
f 36//119 31//117 32//120 38//118 
f 40//123 37//121 36//124 39//122 
f 39//127 36//125 38//128 41//126 
f 38//131 32//129 30//132 42//130 
f 42//135 30//133 27//136 43//134 
f 41//139 38//137 42//140 44//138 
f 44//143 42//141 43//144 45//142 
f 47//147 34//145 33//148 46//146 
f 46//151 33//149 35//152 37//150 
f 49//155 47//153 46//156 48//154 
f 48//159 46//157 37//160 40//158 
f 43//163 27//161 29//164 50//162 
f 50//167 29//165 34//168 47//166 
f 45//171 43//169 50//172 51//170 
f 51//175 50//173 47//176 49//174 
f 39//179 41//177 44//180 52//178 
f 52//183 44//181 45//184 51//182 
f 40//187 39//185 52//188 48//186 
f 48//191 52//189 51//192 49//190 
o 003_Box_3
g Box_3
usemtl Glass Sanding 1_940dbb09-6be6-42ee-a14b-0b74ff34a00a
v -43.114 -0.000 19.313
v -27.422 -0.000 33.560
v -44.874 -0.000 21.586
v -25.662 -0.000 31.287
v -9.969 -0.000 45.534
v -8.210 -0.000 43.261
v -29.181 -0.000 35.833
v -46.633 -0.000 23.859
v -11.729 -0.000 47.807
v -9.969 45.510 45.534
v -11.729 45.510 47.807
v -8.210 45.510 43.261
v -9.969 91.020 45.534
v -11.729 91.020 47.807
v -8.210 91.020 43.261
v -25.662 45.510 31.287
v -43.114 45.510 19.313
v -25.662 91.020 31.287
v -43.114 91.020 19.313
v -29.181 45.510 35.833
v -46.633 45.510 23.859
v -29.181 91.020 35.833
v -46.633 91.020 23.859
v -44.874 45.510 21.586
v -44.874 91.020 21.586
v -27.422 91.020 33.560
vn 0.00000 -1.00000 -0.00000
vn 0.00000 -1.00000 -0.00000
vn 0.00000 -1.00000 -0.00000
vn 0.00000 -1.00000 -0.00000
vn 0.00000 -1.00000 -0.00000
vn 0.00000 -1.00000 -0.00000
vn 0.00000 -1.00000 -0.00000
vn 0.00000 -1.00000 -0.00000
vn 0.00000 -1.00000 -0.00000
vn 0.00000 -1.00000 -0.00000
vn 0.00000 -1.00000 -0.00000
vn 0.00000 -1.00000 -0.00000
vn 0.00000 -1.00000 -0.00000
vn 0.00000 -1.00000 -0.00000
vn 0.00000 -1.00000 -0.00000
vn 0.00000 -1.00000 -0.00000
vn 0.79073 -0.00000 0.61216
vn 0.79073 -0.00000 0.61216
vn 0.79073 -0.00000 0.61216
vn 0.79073 -0.00000 0.61216
vn 0.79073 -0.00000 0.61216
vn 0.79073 -0.00000 0.61216
vn 0.79073 -0.00000 0.61216
vn 0.79073 -0.00000 0.61216
vn 0.79073 -0.00000 0.61216
vn 0.79073 -0.00000 0.61216
vn 0.79073 -0.00000 0.61216
vn 0.79073 -0.00000 0.61216
vn 0.79073 -0.00000 0.61216
vn 0.79073 -0.00000 0.61216
vn 0.79073 -0.00000 0.61216
vn 0.79073 -0.00000 0.61216
vn 0.56575 0.00000 -0.82458
vn 0.56575 0.00000 -0.82458
vn 0.56575 0.00000 -0.82458
vn 0.56575 0.00000 -0.82458
vn 0.56575 0.00000 -0.82458
vn 0.56575 0.00000 -0.82458
vn 0.56575 0.00000 -0.82458
vn 0.56575 0.00000 -0.82458
vn 0.56575 0.00000 -0.82458
vn 0.56575 0.00000 -0.82458
vn 0.56575 0.00000 -0.82458
vn 0.56575 0.00000 -0.82458
vn 0.56575 0.00000 -0.82458
vn 0.56575 0.00000 -0.82458
vn 0.56575 0.00000 -0.82458
vn 0.56575 0.00000 -0.82458
vn -0.56575 -0.00000 0.82458
vn -0.56575 -0.00000 0.82458
vn -0.56575 -0.00000 0.82458
vn -0.56575 -0.00000 0.82458
vn -0.56575 -0.00000 0.82458
vn -0.56575 -0.00000 0.82458
vn -0.56575 -0.00000 0.82458
vn -0.56575 -0.00000 0.82458
vn -0.56575 -0.00000 0.82458
vn -0.56575 -0.00000 0.82458
vn -0.56575 -0.00000 0.82458
vn -0.56575 -0.00000 0.82458
vn -0.56575 -0.00000 0.82458
vn -0.56575 -0.00000 0.82458
vn -0.56575 -0.00000 0.82458
vn -0.56575 -0.00000 0.82458
vn -0.79073 0.00000 -0.61216
vn -0.79073 0.00000 -0.61216
vn -0.79073 0.00000 -0.61216
vn -0.79073 0.00000 -0.61216
vn -0.79073 0.00000 -0.61216
vn -0.79073 0.00000 -0.61216
vn -0.79073 0.00000 -0.61216
vn -0.79073 0.00000 -0.61216
vn -0.79073 0.00000 -0.61216
vn -0.79073 0.00000 -0.61216
vn -0.79073 0.00000 -0.61216
vn -0.79073 0.00000 -0.61216
vn -0.79073 0.00000 -0.61216
vn -0.79073 0.00000 -0.61216
vn -0.79073 0.00000 -0.61216
vn -0.79073 0.00000 -0.61216
vn 0.00000 1.00000 0.00000
vn 0.00000 1.00000 0.00000
vn 0.00000 1.00000 0.00000
vn 0.00000 1.00000 0.00000
vn 0.00000 1.00000 0.00000
vn 0.00000 1.00000 0.00000
vn 0.00000 1.00000 0.00000
vn 0.00000 1.00000 0.00000
vn 0.00000 1.00000 0.00000
vn 0.00000 1.00000 0.00000
vn 0.00000 1.00000 0.00000
vn 0.00000 1.00000 0.00000
vn 0.00000 1.00000 0.00000
vn 0.00000 1.00000 0.00000
vn 0.00000 1.00000 0.00000
vn 0.00000 1.00000 0.00000
f 55//195 53//193 56//196 54//194 
f 54//199 56//197 58//200 57//198 
f 60//203 55//201 54//204 59//202 
f 59//207 54//205 57//208 61//206 
f 63//211 61//209 57//212 62//210 
f 62//215 57//213 58//216 64//214 
f 66//219 63//217 62//220 65//218 
f 65//223 62//221 64//224 67//222 
f 64//227 58//225 56//228 68//226 
f 68//231 56//229 53//232 69//230 
f 67//235 64//233 68//236 70//234 
f 70//239 68//237 69//240 71//238 
f 73//243 60//241 59//244 72//242 
f 72//247 59//245 61//248 63//246 
f 75//251 73//249 72//252 74//250 
f 74//255 72//253 63//256 66//254 
f 69//259 53//257 55//260 76//258 
f 76//263 55//261 60//264 73//262 
f 71//267 69//265 76//268 77//266 
f 77//271 76//269 73//272 75//270 
f 65//275 67//273 70//276 78//274 
f 78//279 70//277 71//280 77//278 
f 66//283 65//281 78//284 74//282 
f 74//287 78//285 77//288 75//286 
o 004_Box_2
g Box_2
usemtl Glass Sanding 1_940dbb09-6be6-42ee-a14b-0b74ff34a00a
v 11.408 -0.000 41.364
v 30.620 -0.000 31.663
v 13.168 -0.000 43.637
v 28.861 -0.000 29.390
v 48.072 -0.000 19.689
v 46.313 -0.000 17.416
v 32.380 -0.000 33.935
v 14.927 -0.000 45.909
v 49.832 -0.000 21.961
v 48.072 45.510 19.689
v 49.832 45.510 21.961
v 46.313 45.510 17.416
v 48.072 91.020 19.689
v 49.832 91.020 21.961
v 46.313 91.020 17.416
v 28.861 45.510 29.390
v 11.408 45.510 41.364
v 28.861 91.020 29.390
v 11.408 91.020 41.364
v 32.380 45.510 33.935
v 14.927 45.510 45.909
v 32.380 91.020 33.935
v 14.927 91.020 45.909
v 13.168 45.510 43.637
v 13.168 91.020 43.637
v 30.620 91.020 31.663
vn 0.00000 -1.00000 -0.00000
vn 0.00000 -1.00000 -0.00000
vn 0.00000 -1.00000 -0.00000
vn 0.00000 -1.00000 -0.00000
vn 0.00000 -1.00000 -0.00000
vn 0.00000 -1.00000 -0.00000
vn 0.00000 -1.00000 -0.00000
vn 0.00000 -1.00000 -0.00000
vn 0.00000 -1.00000 -0.00000
vn 0.00000 -1.00000 -0.00000
vn 0.00000 -1.00000 -0.00000
vn 0.00000 -1.00000 -0.00000
vn 0.00000 -1.00000 -0.00000
vn 0.00000 -1.00000 -0.00000
vn 0.00000 -1.00000 -0.00000
vn 0.00000 -1.00000 -0.00000
vn 0.79073 0.00000 -0.61216
vn 0.79073 0.00000 -0.61216
vn 0.79073 0.00000 -0.61216
vn 0.79073 0.00000 -0.61216
vn 0.79073 0.00000 -0.61216
vn 0.79073 0.00000 -0.61216
vn 0.79073 0.00000 -0.61216
vn 0.79073 0.00000 -0.61216
vn 0.79073 0.00000 -0.61216
vn 0.79073 0.00000 -0.61216
vn 0.79073 0.00000 -0.61216
vn 0.79073 0.00000 -0.61216
vn 0.79073 0.00000 -0.61216
vn 0.79073 0.00000 -0.61216
vn 0.79073 0.00000 -0.61216
vn 0.79073 0.00000 -0.61216
vn -0.56575 0.00000 -0.82458
vn -0.56575 0.00000 -0.82458
vn -0.56575 0.00000 -0.82458
vn -0.56575 0.00000 -0.82458
vn -0.56575 0.00000 -0.82458
vn -0.56575 0.00000 -0.82458
vn -0.56575 0.00000 -0.82458
vn -0.56575 0.00000 -0.82458
vn -0.56575 0.00000 -0.82458
vn -0.56575 0.00000 -0.82458
vn -0.56575 0.00000 -0.82458
vn -0.56575 0.00000 -0.82458
vn -0.56575 0.00000 -0.82458
vn -0.56575 0.00000 -0.82458
vn -0.56575 0.00000 -0.82458
vn -0.56575 0.00000 -0.82458
vn 0.56575 -0.00000 0.82458
vn 0.56575 -0.00000 0.82458
vn 0.56575 -0.00000 0.82458
vn 0.56575 -0.00000 0.82458
vn 0.56575 -0.00000 0.82458
vn 0.56575 -0.00000 0.82458
vn 0.56575 -0.00000 0.82458
vn 0.56575 -0.00000 0.82458
vn 0.56575 -0.00000 0.82458
vn 0.56575 -0.00000 0.82458
vn 0.56575 -0.00000 0.82458
vn 0.56575 -0.00000 0.82458
vn 0.56575 -0.00000 0.82458
vn 0.56575 -0.00000 0.82458
vn 0.56575 -0.00000 0.82458
vn 0.56575 -0.00000 0.82458
vn -0.79073 -0.00000 0.61216
vn -0.79073 -0.00000 0.61216
vn -0.79073 -0.00000 0.61216
vn -0.79073 -0.00000 0.61216
vn -0.79073 -0.00000 0.61216
vn -0.79073 -0.00000 0.61216
vn -0.79073 -0.00000 0.61216
vn -0.79073 -0.00000 0.61216
vn -0.79073 -0.00000 0.61216
vn -0.79073 -0.00000 0.61216
vn -0.79073 -0.00000 0.61216
vn -0.79073 -0.00000 0.61216
vn -0.79073 -0.00000 0.61216
vn -0.79073 -0.00000 0.61216
vn -0.79073 -0.00000 0.61216
vn -0.79073 -0.00000 0.61216
vn 0.00000 1.00000 0.00000
vn 0.00000 1.00000 0.00000
vn 0.00000 1.00000 0.00000
vn 0.00000 1.00000 0.00000
vn 0.00000 1.00000 0.00000
vn 0.00000 1.00000 0.00000
vn 0.00000 1.00000 0.00000
vn 0.00000 1.00000 0.00000
vn 0.00000 1.00000 0.00000
vn 0.00000 1.00000 0.00000
vn 0.00000 1.00000 0.00000
vn 0.00000 1.00000 0.00000
vn 0.00000 1.00000 0.00000
vn 0.00000 1.00000 0.00000
vn 0.00000 1.00000 0.00000
vn 0.00000 1.00000 0.00000
f 81//291 79//289 82//292 80//290 
f 80//295 82//293 84//296 83//294 
f 86//299 81//297 80//300 85//298 
f 85//303 80//301 83//304 87//302 
f 89//307 87//305 83//308 88//306 
f 88//311 83//309 84//312 90//310 
f 92//315 89//313 88//316 91//314 
f 91//319 88//317 90//320 93//318 
f 90//323 84//321 82//324 94//322 
f 94//327 82//325 79//328 95//326 
f 93//331 90//329 94//332 96//330 
f 96//335 94//333 95//336 97//334 
f 99//339 86//337 85//340 98//338 
f 98//343 85//341 87//344 89//342 
f 101//347 99//345 98//348 100//346 
f 100//351 98//349 89//352 92//350 
f 95//355 79//353 81//356 102//354 
f 102//359 81//357 86//360 99//358 
f 97//363 95//361 102//364 103//362 
f 103//367 102//365 99//368 101//366 
f 91//371 93//369 96//372 104//370 
f 104//375 96//373 97//376 103//374 
f 92//379 91//377 104//380 100//378 
f 100//383 104//381 103//384 101//382 
o 005_Box_1
g Box_1
usemtl Glass Sanding 1_940dbb09-6be6-42ee-a14b-0b74ff34a00a
v 50.573 -0.000 7.465
v 46.346 0.000 -13.991
v 53.525 -0.000 6.551
v 43.394 0.000 -13.077
v 39.167 0.000 -34.533
v 36.215 0.000 -33.619
v 49.298 0.000 -14.906
v 56.477 -0.000 5.636
v 42.119 0.000 -35.448
v 39.167 43.777 -34.533
v 42.119 43.777 -35.448
v 36.215 43.777 -33.619
v 39.167 87.555 -34.533
v 42.119 87.555 -35.448
v 36.215 87.555 -33.619
v 43.394 43.777 -13.077
v 50.573 43.777 7.465
v 43.394 87.555 -13.077
v 50.573 87.555 7.465
v 49.298 43.777 -14.906
v 56.477 43.777 5.636
v 49.298 87.555 -14.906
v 56.477 87.555 5.636
v 53.525 43.777 6.551
v 53.525 87.555 6.551
v 46.346 87.555 -13.991
vn 0.00000 -1.00000 -0.00000
vn 0.00000 -1.00000 -0.00000
vn 0.00000 -1.00000 -0.00000
vn 0.00000 -1.00000 -0.00000
vn 0.00000 -1.00000 -0.00000
vn 0.00000 -1.00000 -0.00000
vn 0.00000 -1.00000 -0.00000
vn 0.00000 -1.00000 -0.00000
vn 0.00000 -1.00000 -0.00000
vn 0.00000 -1.00000 -0.00000
vn 0.00000 -1.00000 -0.00000
vn 0.00000 -1.00000 -0.00000
vn 0.00000 -1.00000 -0.00000
vn 0.00000 -1.00000 -0.00000
vn 0.00000 -1.00000 -0.00000
vn 0.00000 -1.00000 -0.00000
vn -0.29585 0.00000 -0.95523
vn -0.29585 0.00000 -0.95523
vn -0.29585 0.00000 -0.95523
vn -0.29585 0.00000 -0.95523
vn -0.29585 0.00000 -0.95523
vn -0.29585 0.00000 -0.95523
vn -0.29585 0.00000 -0.95523
vn -0.29585 0.00000 -0.95523
vn -0.29585 0.00000 -0.95523
vn -0.29585 0.00000 -0.95523
vn -0.29585 0.00000 -0.95523
vn -0.29585 0.00000 -0.95523
vn -0.29585 0.00000 -0.95523
vn -0.29585 0.00000 -0.95523
vn -0.29585 0.00000 -0.95523
vn -0.29585 0.00000 -0.95523
vn -0.94401 -0.00000 0.32990
vn -0.94401 -0.00000 0.32990
vn -0.94401 -0.00000 0.32990
vn -0.94401 -0.00000 0.32990
vn -0.94401 -0.00000 0.32990
vn -0.94401 -0.00000 0.32990
vn -0.94401 -0.00000 0.32990
vn -0.94401 -0.00000 0.32990
vn -0.94401 -0.00000 0.32990
vn -0.94401 -0.00000 0.32990
vn -0.94401 -0.00000 0.32990
vn -0.94401 -0.00000 0.32990
vn -0.94401 -0.00000 0.32990
vn -0.94401 -0.00000 0.32990
vn -0.94401 -0.00000 0.32990
vn -0.94401 -0.00000 0.32990
vn 0.94401 0.00000 -0.32990
vn 0.94401 0.00000 -0.32990
vn 0.94401 0.00000 -0.32990
vn 0.94401 0.00000 -0.32990
vn 0.94401 0.00000 -0.32990
vn 0.94401 0.00000 -0.32990
vn 0.94401 0.00000 -0.32990
vn 0.94401 0.00000 -0.32990
vn 0.94401 0.00000 -0.32990
vn 0.94401 0.00000 -0.32990
vn 0.94401 0.00000 -0.32990
vn 0.94401 0.00000 -0.32990
vn 0.94401 0.00000 -0.32990
vn 0.94401 0.00000 -0.32990
vn 0.94401 0.00000 -0.32990
vn 0.94401 0.00000 -0.32990
vn 0.29585 -0.00000 0.95523
vn 0.29585 -0.00000 0.95523
vn 0.29585 -0.00000 0.95523
vn 0.29585 -0.00000 0.95523
vn 0.29585 -0.00000 0.95523
vn 0.29585 -0.00000 0.95523
vn 0.29585 -0.00000 0.95523
vn 0.29585 -0.00000 0.95523
vn 0.29585 -0.00000 0.95523
vn 0.29585 -0.00000 0.95523
vn 0.29585 -0.00000 0.95523
vn 0.29585 -0.00000 0.95523
vn 0.29585 -0.00000 0.95523
vn 0.29585 -0.00000 0.95523
vn 0.29585 -0.00000 0.95523
vn 0.29585 -0.00000 0.95523
vn 0.00000 1.00000 0.00000
vn 0.00000 1.00000 0.00000
vn 0.00000 1.00000 0.00000
vn 0.00000 1.00000 0.00000
vn 0.00000 1.00000 0.00000
vn 0.00000 1.00000 0.00000
vn 0.00000 1.00000 0.00000
vn 0.00000 1.00000 0.00000
vn 0.00000 1.00000 0.00000
vn 0.00000 1.00000 0.00000
vn 0.00000 1.00000 0.00000
vn 0.00000 1.00000 0.00000
vn 0.00000 1.00000 0.00000
vn 0.00000 1.00000 0.00000
vn 0.00000 1.00000 0.00000
vn 0.00000 1.00000 0.00000
f 107//387 105//385 108//388 106//386 
f 106//391 108//389 110//392 109//390 
f 112//395 107//393 106//396 111//394 
f 111//399 106//397 109//400 113//398 
f 115//403 113//401 109//404 114//402 
f 114//407 109//405 110//408 116//406 
f 118//411 115//409 114//412 117//410 
f 117//415 114//413 116//416 119//414 
f 116//419 110//417 108//420 120//418 
f 120//423 108//421 105//424 121//422 
f 119//427 116//425 120//428 122//426 
f 122//431 120//429 121//432 123//430 
f 125//435 112//433 111//436 124//434 
f 124//439 111//437 113//440 115//438 
f 127//443 125//441 124//444 126//442 
f 126//447 124//445 115//448 118//446 
f 121//451 105//449 107//452 128//450 
f 128//455 107//453 112//456 125//454 
f 123//459 121//457 128//460 129//458 
f 129//463 128//461 125//464 127//462 
f 117//467 119//465 122//468 130//466 
f 130//471 122//469 123//472 129//470 
f 118//475 117//473 130//476 126//474 
f 126//479 130//477 129//480 127//478 
