# Blender v2.93.1 OBJ File: ''
# www.blender.org
mtllib Shape 4.mtl
o Cube
v -1.323154 0.000000 -0.131876
v -1.671307 0.000000 1.469885
v -1.654132 0.000000 1.463138
v -1.636343 0.000000 1.454551
v -1.616101 0.000000 1.442282
v -0.796965 0.000000 0.819027
v -0.797849 0.000000 0.802244
v -1.145122 0.000000 0.032969
v -1.688482 0.000000 1.475406
v -1.709952 0.000000 1.482767
v -1.730194 0.000000 1.487061
v -1.753503 0.000000 1.490128
v -1.775585 0.000000 1.491968
v -1.805029 0.000000 1.493195
v -1.825271 0.000000 1.491354
v -1.850420 0.000000 1.488901
v -1.871276 0.000000 1.484607
v -2.405672 0.000000 1.364478
v -2.419303 0.000000 1.356811
v -2.427396 0.000000 1.349995
v -2.434212 0.000000 1.341902
v -2.439324 0.000000 1.330401
v -2.444009 0.000000 1.316769
v -2.445287 0.000000 1.303990
v -2.444009 0.000000 1.289507
v -2.441453 0.000000 1.274598
v -2.435916 0.000000 1.259263
v -2.426544 0.000000 1.242650
v -1.327579 0.000000 -0.128858
v -1.323154 0.042272 -0.131876
v -1.671307 0.042272 1.469885
v -1.654132 0.042272 1.463138
v -1.636343 0.042272 1.454551
v -1.616101 0.042272 1.442282
v -0.796965 0.042272 0.819027
v -0.797849 0.042272 0.802244
v -1.145122 0.042272 0.032969
v -1.688482 0.042272 1.475406
v -1.709952 0.042272 1.482767
v -1.730194 0.042272 1.487061
v -1.753503 0.042272 1.490128
v -1.775585 0.042272 1.491968
v -1.805029 0.042272 1.493195
v -1.825271 0.042272 1.491354
v -1.850420 0.042272 1.488901
v -1.871276 0.042272 1.484607
v -2.405672 0.042272 1.364478
v -2.419303 0.042272 1.356811
v -2.427396 0.042272 1.349995
v -2.434212 0.042272 1.341902
v -2.439324 0.042272 1.330401
v -2.444009 0.042272 1.316769
v -2.445287 0.042272 1.303990
v -2.444009 0.042272 1.289507
v -2.441453 0.042272 1.274598
v -2.435916 0.042272 1.259263
v -2.426544 0.042272 1.242650
v -1.327579 0.042272 -0.128858
vt 0.000000 0.000000
vt 0.000000 0.000000
vt 0.000000 0.000000
vt 0.000000 0.000000
vt 0.000000 0.000000
vt 0.000000 0.000000
vt 0.000000 0.000000
vt 0.000000 0.000000
vt 0.000000 0.000000
vt 0.000000 0.000000
vt 0.000000 0.000000
vt 0.000000 0.000000
vt 0.000000 0.000000
vt 0.000000 0.000000
vt 0.000000 0.000000
vt 0.000000 0.000000
vt 0.000000 0.000000
vt 0.000000 0.000000
vt 0.000000 0.000000
vt 0.000000 0.000000
vt 0.000000 0.000000
vt 0.000000 0.000000
vt 0.000000 0.000000
vt 0.000000 0.000000
vt 0.000000 0.000000
vt 0.000000 0.000000
vt 0.000000 0.000000
vt 0.000000 0.000000
vt 0.000000 0.000000
vt 0.000000 0.000000
vt 0.000000 0.000000
vt 0.000000 0.000000
vt 0.000000 0.000000
vt 0.000000 0.000000
vt 0.000000 0.000000
vt 0.000000 0.000000
vt 0.000000 0.000000
vt 0.000000 0.000000
vt 0.000000 0.000000
vt 0.000000 0.000000
vt 0.000000 0.000000
vt 0.000000 0.000000
vt 0.000000 0.000000
vt 0.000000 0.000000
vt 0.000000 0.000000
vt 0.000000 0.000000
vt 0.000000 0.000000
vt 0.000000 0.000000
vt 0.000000 0.000000
vt 0.000000 0.000000
vt 0.000000 0.000000
vt 0.000000 0.000000
vt 0.000000 0.000000
vt 0.000000 0.000000
vt 0.000000 0.000000
vt 0.000000 0.000000
vt 0.000000 0.000000
vt 0.000000 0.000000
vn 0.5183 0.0000 0.8552
vn -0.9961 0.0000 -0.0879
vn 0.4347 0.0000 0.9006
vn -0.9950 0.0000 0.0995
vn 0.3657 0.0000 0.9308
vn -0.9457 0.0000 0.3251
vn 0.3060 0.0000 0.9520
vn 0.0000 1.0000 -0.0000
vn 0.0000 -1.0000 0.0000
vn -0.9856 0.0000 -0.1690
vn 0.6055 0.0000 0.7958
vn -0.9406 0.0000 -0.3396
vn 0.9986 0.0000 -0.0526
vn -0.8710 0.0000 -0.4913
vn 0.9114 0.0000 -0.4114
vn -0.0971 0.0000 0.9953
vn -0.7804 0.0000 -0.6253
vn 0.6794 0.0000 -0.7338
vn -0.0905 0.0000 0.9959
vn -0.5634 0.0000 -0.8262
vn -0.2016 0.0000 0.9795
vn 0.0416 0.0000 0.9991
vn -0.2193 0.0000 0.9757
vn 0.0830 0.0000 0.9965
vn -0.4903 0.0000 0.8716
vn 0.1305 0.0000 0.9915
vn -0.6441 0.0000 0.7649
vn 0.2075 0.0000 0.9782
vn -0.7649 0.0000 0.6441
vn 0.3243 0.0000 0.9459
vn -0.9138 0.0000 0.4061
usemtl Material
s off
f 4/1/1 5/2/1 34/3/1 33/4/1
f 25/5/2 24/6/2 53/7/2 54/8/2
f 3/9/3 4/1/3 33/4/3 32/10/3
f 24/6/4 23/11/4 52/12/4 53/7/4
f 2/13/5 3/9/5 32/10/5 31/14/5
f 23/11/6 22/15/6 51/16/6 52/12/6
f 9/17/7 2/13/7 31/14/7 38/18/7
f 44/19/8 43/20/8 42/21/8 41/22/8 40/23/8 39/24/8 38/18/8 31/14/8 32/10/8 33/4/8 34/3/8 35/25/8 36/26/8 37/27/8 30/28/8 58/29/8 57/30/8 56/31/8 55/32/8 54/8/8 53/7/8 52/12/8 51/16/8 50/33/8 49/34/8 48/35/8 47/36/8 46/37/8 45/38/8
f 15/39/9 16/40/9 17/41/9 18/42/9 19/43/9 20/44/9 21/45/9 22/15/9 23/11/9 24/6/9 25/5/9 26/46/9 27/47/9 28/48/9 29/49/9 1/50/9 8/51/9 7/52/9 6/53/9 5/2/9 4/1/9 3/9/9 2/13/9 9/17/9 10/54/9 11/55/9 12/56/9 13/57/9 14/58/9
f 26/46/10 25/5/10 54/8/10 55/32/10
f 5/2/11 6/53/11 35/25/11 34/3/11
f 27/47/12 26/46/12 55/32/12 56/31/12
f 6/53/13 7/52/13 36/26/13 35/25/13
f 28/48/14 27/47/14 56/31/14 57/30/14
f 7/52/15 8/51/15 37/27/15 36/26/15
f 16/40/16 15/39/16 44/19/16 45/38/16
f 29/49/17 28/48/17 57/30/17 58/29/17
f 8/51/18 1/50/18 30/28/18 37/27/18
f 15/39/19 14/58/19 43/20/19 44/19/19
f 1/50/20 29/49/20 58/29/20 30/28/20
f 17/41/21 16/40/21 45/38/21 46/37/21
f 14/58/22 13/57/22 42/21/22 43/20/22
f 18/42/23 17/41/23 46/37/23 47/36/23
f 13/57/24 12/56/24 41/22/24 42/21/24
f 19/43/25 18/42/25 47/36/25 48/35/25
f 12/56/26 11/55/26 40/23/26 41/22/26
f 20/44/27 19/43/27 48/35/27 49/34/27
f 11/55/28 10/54/28 39/24/28 40/23/28
f 21/45/29 20/44/29 49/34/29 50/33/29
f 10/54/30 9/17/30 38/18/30 39/24/30
f 22/15/31 21/45/31 50/33/31 51/16/31
