# Blender v2.93.1 OBJ File: ''
# www.blender.org
mtllib Shape 3.mtl
o Cube
v -0.431759 0.000102 -0.837644
v -0.437754 0.000000 -0.838877
v -0.512850 0.000000 -0.769275
v 0.172171 0.000000 -0.448744
v 0.210635 0.000000 -0.534830
v -0.431763 0.020955 -0.837634
v -0.437759 0.020853 -0.838867
v -0.512855 0.020853 -0.769266
v 0.172167 0.020853 -0.448734
v 0.210630 0.020853 -0.534820
vt 0.000000 0.000000
vt 0.000000 0.000000
vt 0.000000 0.000000
vt 0.000000 0.000000
vt 0.000000 0.000000
vt 0.000000 0.000000
vt 0.000000 0.000000
vt 0.000000 0.000000
vt 0.000000 0.000000
vt 0.000000 0.000000
vn -0.0002 1.0000 0.0005
vn 0.0002 -1.0000 -0.0005
vn -0.4264 -0.0005 0.9045
vn 0.4238 0.0005 -0.9057
vn -0.2014 -0.0005 0.9795
vn -0.9130 -0.0000 -0.4079
vn 0.6798 -0.0002 0.7334
usemtl Material
s off
f 3/1/1 4/2/1 5/3/1 1/4/1 2/5/1
f 8/6/2 7/7/2 6/8/2 10/9/2 9/10/2
f 1/4/3 5/3/3 10/9/3 6/8/3
f 4/2/4 3/1/4 8/6/4 9/10/4
f 2/5/5 1/4/5 6/8/5 7/7/5
f 5/3/6 4/2/6 9/10/6 10/9/6
f 3/1/7 2/5/7 7/7/7 8/6/7
