# Blender v2.93.1 OBJ File: ''
# www.blender.org
mtllib shape 2.mtl
o Cube
v 0.506403 0.000000 -0.735867
v 0.741907 0.000000 -1.470428
v 0.752130 0.000000 -1.466595
v 0.763631 0.000000 -1.460631
v 0.773003 0.000000 -1.452112
v 0.782800 0.000000 -1.442314
v 0.791320 0.000000 -1.422719
v 0.796408 0.000000 -1.399824
v 0.724868 0.000000 -1.471706
v 0.706551 0.000000 -1.472558
v 0.706551 0.000000 -1.472558
v 0.256069 0.000000 -1.432810
v 0.219009 0.000000 -1.425142
v 0.190043 0.000000 -1.415771
v 0.161503 0.000000 -1.401714
v 0.135518 0.000000 -1.389361
v 0.100162 0.000000 -1.369340
v 0.074604 0.000000 -1.351023
v 0.052027 0.000000 -1.333558
v 0.029451 0.000000 -1.311408
v -0.294896 0.000000 -0.961621
v -0.295322 0.000000 -0.957362
v -0.294044 0.000000 -0.953102
v -0.289785 0.000000 -0.950120
v -0.283395 0.000000 -0.948842
v 0.499914 0.000000 -0.735790
v 0.506403 0.054083 -0.735867
v 0.741907 0.054083 -1.470428
v 0.752130 0.054083 -1.466595
v 0.763631 0.054083 -1.460631
v 0.773003 0.054083 -1.452112
v 0.782800 0.054083 -1.442314
v 0.791320 0.054083 -1.422719
v 0.796408 0.054083 -1.399824
v 0.724868 0.054083 -1.471706
v 0.706551 0.054083 -1.472558
v 0.256069 0.054083 -1.432810
v 0.219009 0.054083 -1.425142
v 0.190043 0.054083 -1.415771
v 0.161503 0.054083 -1.401714
v 0.135518 0.054083 -1.389361
v 0.100162 0.054083 -1.369340
v 0.074604 0.054083 -1.351023
v 0.052027 0.054083 -1.333558
v 0.029451 0.054083 -1.311408
v -0.294896 0.054083 -0.961621
v -0.295322 0.054083 -0.957362
v -0.294044 0.054083 -0.953102
v -0.289785 0.054083 -0.950120
v -0.283395 0.054083 -0.948842
v 0.499914 0.054083 -0.735790
vt 0.000000 0.000000
vt 0.000000 0.000000
vt 0.000000 0.000000
vt 0.000000 0.000000
vt 0.000000 0.000000
vt 0.000000 0.000000
vt 0.000000 0.000000
vt 0.000000 0.000000
vt 0.000000 0.000000
vt 0.000000 0.000000
vt 0.000000 0.000000
vt 0.000000 0.000000
vt 0.000000 0.000000
vt 0.000000 0.000000
vt 0.000000 0.000000
vt 0.000000 0.000000
vt 0.000000 0.000000
vt 0.000000 0.000000
vt 0.000000 0.000000
vt 0.000000 0.000000
vt 0.000000 0.000000
vt 0.000000 0.000000
vt 0.000000 0.000000
vt 0.000000 0.000000
vt 0.000000 0.000000
vt 0.000000 0.000000
vt 0.000000 0.000000
vt 0.000000 0.000000
vt 0.000000 0.000000
vt 0.000000 0.000000
vt 0.000000 0.000000
vt 0.000000 0.000000
vt 0.000000 0.000000
vt 0.000000 0.000000
vt 0.000000 0.000000
vt 0.000000 0.000000
vt 0.000000 0.000000
vt 0.000000 0.000000
vt 0.000000 0.000000
vt 0.000000 0.000000
vt 0.000000 0.000000
vt 0.000000 0.000000
vt 0.000000 0.000000
vt 0.000000 0.000000
vt 0.000000 0.000000
vt 0.000000 0.000000
vt 0.000000 0.000000
vt 0.000000 0.000000
vt 0.000000 0.000000
vt 0.000000 0.000000
vn -0.6727 0.0000 0.7399
vn 0.6119 0.0000 0.7910
vn 0.3078 0.0000 0.9514
vn 0.2625 0.0000 -0.9649
vn -0.4603 0.0000 0.8878
vn 0.5825 0.0000 0.8128
vn 0.4418 0.0000 0.8971
vn 0.0000 -1.0000 0.0000
vn 0.0000 1.0000 0.0000
vn -0.0465 0.0000 0.9989
vn 0.2026 0.0000 0.9793
vn 0.7003 0.0000 0.7138
vn -0.7071 0.0000 0.7071
vn -0.0117 0.0000 -0.9999
vn 0.0879 0.0000 0.9961
vn 0.7333 0.0000 0.6799
vn -0.9171 0.0000 0.3987
vn 0.9950 0.0000 0.0995
vn -0.9762 0.0000 0.2169
vn 0.9578 0.0000 -0.2874
vn -0.9164 0.0000 -0.4003
vn -0.0748 0.0000 0.9972
vn 0.5735 0.0000 -0.8192
vn 0.4294 0.0000 0.9031
vn 0.4927 0.0000 0.8702
vn -0.3511 0.0000 0.9363
vn 0.1961 0.0000 -0.9806
usemtl Material
s off
f 4/1/1 5/2/1 31/3/1 30/4/1
f 19/5/2 18/6/2 43/7/2 44/8/2
f 14/9/3 13/10/3 38/11/3 39/12/3
f 26/13/4 25/14/4 50/15/4 51/16/4
f 3/17/5 4/1/5 30/4/5 29/18/5
f 18/6/6 17/19/6 42/20/6 43/7/6
f 15/21/7 14/9/7 39/12/7 40/22/7
f 40/22/8 39/12/8 38/11/8 37/23/8 36/24/8 35/25/8 28/26/8 29/18/8 30/4/8 31/3/8 32/27/8 33/28/8 34/29/8 27/30/8 51/16/8 50/15/8 49/31/8 48/32/8 47/33/8 46/34/8 45/35/8 44/8/8 43/7/8 42/20/8 41/36/8
f 15/21/9 16/37/9 17/19/9 18/6/9 19/5/9 20/38/9 21/39/9 22/40/9 23/41/9 24/42/9 25/14/9 26/13/9 1/43/9 8/44/9 7/45/9 6/46/9 5/2/9 4/1/9 3/17/9 2/47/9 9/48/9 11/49/9 12/50/9 13/10/9 14/9/9
f 11/49/10 9/48/10 35/25/10 36/24/10
f 13/10/11 12/50/11 37/23/11 38/11/11
f 20/38/12 19/5/12 44/8/12 45/35/12
f 5/2/13 6/46/13 32/27/13 31/3/13
f 1/43/14 26/13/14 51/16/14 27/30/14
f 12/50/15 11/49/15 36/24/15 37/23/15
f 21/39/16 20/38/16 45/35/16 46/34/16
f 6/46/17 7/45/17 33/28/17 32/27/17
f 22/40/18 21/39/18 46/34/18 47/33/18
f 7/45/19 8/44/19 34/29/19 33/28/19
f 23/41/20 22/40/20 47/33/20 48/32/20
f 8/44/21 1/43/21 27/30/21 34/29/21
f 9/48/22 2/47/22 28/26/22 35/25/22
f 24/42/23 23/41/23 48/32/23 49/31/23
f 16/37/24 15/21/24 40/22/24 41/36/24
f 17/19/25 16/37/25 41/36/25 42/20/25
f 2/47/26 3/17/26 29/18/26 28/26/26
f 25/14/27 24/42/27 49/31/27 50/15/27
l 10 11
l 9 10
